<svg width="302" height="960" viewBox="0 0 302 960" fill="none" xmlns="http://www.w3.org/2000/svg">
<path opacity="0.02" d="M177.481 470.937C212.358 445.297 208.726 411.319 202.551 397.534L119.706 183.455L-508.84 543.372L-425.995 757.451C-421.196 772.024 -401.982 797.08 -363.514 780.721C-315.429 760.272 -308.812 781.283 -295.432 793.697C-282.052 806.111 -264.541 816.16 -230.359 780.644C-196.177 745.128 -159.454 718.786 -118.162 732.931C-85.1277 744.247 -61.3362 734.048 -52.9872 729.268C-44.6382 724.487 -23.0165 708.681 -9.13663 670.501C8.21313 622.776 48.3032 605.134 92.5861 595.72C136.869 586.305 141.66 563.486 142.32 543.032C142.981 522.577 133.886 502.986 177.481 470.937Z" fill="black"/>
<path d="M146.158 424.188C171.716 394.442 162.999 366.644 155.446 356.463L49.2965 195.308L-428.19 645.283L-322.041 806.438C-315.534 817.605 -294.979 834.247 -264.82 811.486C-227.12 783.036 -217.996 799.205 -204.514 806.551C-191.032 813.896 -174.412 818.285 -151.08 780.374C-127.747 742.463 -100.728 711.693 -63.1145 713.99C-33.0239 715.827 -14.3843 701.681 -8.04186 695.704C-1.69942 689.727 14.1601 671.361 19.7085 635.939C26.6441 591.66 57.9774 567.44 94.2522 549.178C130.527 530.916 130.849 510.562 128.033 493.164C125.218 475.767 114.211 461.372 146.158 424.188Z" fill="black"/>
<path d="M146.158 424.188C171.716 394.442 162.999 366.644 155.446 356.463L49.2965 195.308L-428.19 645.283L-322.041 806.438C-315.534 817.605 -294.979 834.247 -264.82 811.486C-227.12 783.036 -217.996 799.205 -204.514 806.551C-191.032 813.896 -174.412 818.285 -151.08 780.374C-127.747 742.463 -100.728 711.693 -63.1145 713.99C-33.0239 715.827 -14.3843 701.681 -8.04186 695.704C-1.69942 689.727 14.1601 671.361 19.7085 635.939C26.6441 591.66 57.9774 567.44 94.2522 549.178C130.527 530.916 130.849 510.562 128.033 493.164C125.218 475.767 114.211 461.372 146.158 424.188Z" fill="url(#paint0_linear_2_1101)"/>
<path d="M133.611 188.284C146.049 148.661 127.909 128.482 117.284 123.346L-38.6536 35.1062L-309.767 681.461L-153.829 769.7C-143.798 776.252 -118.937 780.406 -99.7388 744.608C-75.7414 699.86 -61.4882 709.502 -46.4892 709.056C-31.4901 708.611 -14.7097 703.918 -7.29366 658.195C0.122347 612.471 13.5197 571.184 48.7003 553.783C76.8448 539.862 88.681 517.667 92.2822 509.082C95.8834 500.496 103.635 475.991 95.7265 441.668C85.8403 398.766 105.575 361.064 132.004 326.099C158.432 291.134 151.271 272.894 142.328 258.901C133.386 244.908 118.064 237.814 133.611 188.284Z" fill="black"/>
<path d="M133.611 188.284C146.049 148.661 127.909 128.482 117.284 123.346L-38.6536 35.1062L-309.767 681.461L-153.829 769.7C-143.798 776.252 -118.937 780.406 -99.7388 744.608C-75.7414 699.86 -61.4882 709.502 -46.4892 709.056C-31.4901 708.611 -14.7097 703.918 -7.29366 658.195C0.122347 612.471 13.5197 571.184 48.7003 553.783C76.8448 539.862 88.681 517.667 92.2822 509.082C95.8834 500.496 103.635 475.991 95.7265 441.668C85.8403 398.766 105.575 361.064 132.004 326.099C158.432 291.134 151.271 272.894 142.328 258.901C133.386 244.908 118.064 237.814 133.611 188.284Z" fill="url(#paint1_linear_2_1101)"/>
<defs>
<linearGradient id="paint0_linear_2_1101" x1="376.82" y1="288.89" x2="-257.765" y2="646.31" gradientUnits="userSpaceOnUse">
<stop stop-color="#00ACEE"/>
<stop offset="0.505208" stop-color="#013C75"/>
<stop offset="1" stop-color="#2D56B3"/>
</linearGradient>
<linearGradient id="paint1_linear_2_1101" x1="104.813" y1="154.588" x2="-207.287" y2="909.864" gradientUnits="userSpaceOnUse">
<stop stop-color="#2D56B3"/>
<stop offset="0.505208" stop-color="#407BFF"/>
<stop offset="1" stop-color="#00ACEE"/>
</linearGradient>
</defs>
</svg>
