<svg width="412" height="990" viewBox="0 0 412 990" fill="none" xmlns="http://www.w3.org/2000/svg">
<path opacity="0.02" d="M171.333 426.09C125.901 393.832 138.035 361.153 149.781 348.846L313.248 155.066L1152.65 635.965L989.185 829.744C979.277 843.105 946.333 863.862 893.816 840.005C828.169 810.183 814.322 829.507 792.397 839.011C770.473 848.516 743.033 854.86 700.604 813.031C658.176 771.201 610.207 737.878 547.428 743.446C497.205 747.901 464.74 733.066 453.59 726.678C442.44 720.29 414.257 700.38 401.828 660.031C386.292 609.596 331.679 584.149 269.32 565.946C206.961 547.742 204.619 524.335 207.792 504.088C210.965 483.841 228.122 466.413 171.333 426.09Z" fill="black"/>
<path d="M226.231 386.448C195.152 352.034 213.417 326.46 226.435 317.974L413.028 180.945L1015.03 719.887L828.437 856.916C816.739 866.582 783.549 878.795 744.381 850.32C695.421 814.728 678.913 828.785 657.865 833.284C636.817 837.784 611.813 838.742 585.612 796.749C559.412 754.756 526.419 719.04 471.372 713.7C427.336 709.428 403.144 691.753 395.148 684.594C387.152 677.435 367.847 656.171 366.951 620.217C365.832 575.275 325.255 545.128 276.304 519.842C227.354 494.556 230.998 474.476 238.599 457.937C246.199 441.398 265.08 429.466 226.231 386.448Z" fill="black"/>
<path d="M226.231 386.448C195.152 352.034 213.417 326.46 226.435 317.974L413.028 180.945L1015.03 719.887L828.437 856.916C816.739 866.582 783.549 878.795 744.381 850.32C695.421 814.728 678.913 828.785 657.865 833.284C636.817 837.784 611.813 838.742 585.612 796.749C559.412 754.756 526.419 719.04 471.372 713.7C427.336 709.428 403.144 691.753 395.148 684.594C387.152 677.435 367.847 656.171 366.951 620.217C365.832 575.275 325.255 545.128 276.304 519.842C227.354 494.556 230.998 474.476 238.599 457.937C246.199 441.398 265.08 429.466 226.231 386.448Z" fill="url(#paint0_linear_2_1097)"/>
<path d="M292.094 157.006C282.049 115.53 312.449 99.3514 328.905 96.4469L573.019 41.178L835.872 731.54L591.758 786.809C575.878 791.225 538.962 790.288 518.334 751.207C492.55 702.356 469.919 708.958 448.243 705.49C426.568 702.022 403.165 694.018 401.64 647.558C400.115 601.098 389.014 557.791 341.477 533.572C303.447 514.198 290.755 489.982 287.263 480.812C283.772 471.642 277.473 445.978 295.883 413.825C318.897 373.634 297.875 332.573 266.586 292.851C235.298 253.13 249.375 236.64 265.179 224.686C280.983 212.732 304.65 208.852 292.094 157.006Z" fill="black"/>
<path d="M292.094 157.006C282.049 115.53 312.449 99.3514 328.905 96.4469L573.019 41.178L835.872 731.54L591.758 786.809C575.878 791.225 538.962 790.288 518.334 751.207C492.55 702.356 469.919 708.958 448.243 705.49C426.568 702.022 403.165 694.018 401.64 647.558C400.115 601.098 389.014 557.791 341.477 533.572C303.447 514.198 290.755 489.982 287.263 480.812C283.772 471.642 277.473 445.978 295.883 413.825C318.897 373.634 297.875 332.573 266.586 292.851C235.298 253.13 249.375 236.64 265.179 224.686C280.983 212.732 304.65 208.852 292.094 157.006Z" fill="url(#paint1_linear_2_1097)"/>
<defs>
<linearGradient id="paint0_linear_2_1097" x1="-81.1617" y1="206.806" x2="513.137" y2="903.467" gradientUnits="userSpaceOnUse">
<stop stop-color="#00ACEE"/>
<stop offset="0.505208" stop-color="#013C75"/>
<stop offset="1" stop-color="#2D56B3"/>
</linearGradient>
<linearGradient id="paint1_linear_2_1097" x1="340.692" y1="129.689" x2="451.34" y2="960.693" gradientUnits="userSpaceOnUse">
<stop stop-color="#2D56B3"/>
<stop offset="0.505208" stop-color="#407BFF"/>
<stop offset="1" stop-color="#00ACEE"/>
</linearGradient>
</defs>
</svg>
