<svg width="90" height="89" viewBox="0 0 90 89" fill="none" xmlns="http://www.w3.org/2000/svg">
<g clip-path="url(#clip0_2_1062)">
<path d="M30.1667 33.375H59.8333" stroke="url(#paint0_linear_2_1062)" stroke-width="7" stroke-linecap="round" stroke-linejoin="round"/>
<path d="M30.1667 48.2084H52.4167" stroke="url(#paint1_linear_2_1062)" stroke-width="7" stroke-linecap="round" stroke-linejoin="round"/>
<path d="M45 77.875L41.2917 74.1667L33.875 66.75H22.75C19.7995 66.75 16.9698 65.5779 14.8834 63.4916C12.7971 61.4053 11.625 58.5756 11.625 55.625V25.9584C11.625 23.0078 12.7971 20.1782 14.8834 18.0918C16.9698 16.0055 19.7995 14.8334 22.75 14.8334H67.25C70.2005 14.8334 73.0302 16.0055 75.1166 18.0918C77.2029 20.1782 78.375 23.0078 78.375 25.9584V48.2084" stroke="url(#paint2_linear_2_1062)" stroke-width="7" stroke-linecap="round" stroke-linejoin="round"/>
<path d="M74.6667 77.875L82.0833 70.4583L74.6667 63.0416" stroke="url(#paint3_linear_2_1062)" stroke-width="7" stroke-linecap="round" stroke-linejoin="round"/>
<path d="M63.5417 63.0416L56.125 70.4583L63.5417 77.875" stroke="url(#paint4_linear_2_1062)" stroke-width="7" stroke-linecap="round" stroke-linejoin="round"/>
</g>
<defs>
<linearGradient id="paint0_linear_2_1062" x1="30.1667" y1="33.875" x2="59.8333" y2="33.875" gradientUnits="userSpaceOnUse">
<stop offset="0.0673077" stop-color="#013C75" stop-opacity="0.8"/>
<stop offset="0.817308" stop-color="#00ACEE"/>
</linearGradient>
<linearGradient id="paint1_linear_2_1062" x1="30.1667" y1="48.7084" x2="52.4167" y2="48.7084" gradientUnits="userSpaceOnUse">
<stop offset="0.0673077" stop-color="#013C75" stop-opacity="0.8"/>
<stop offset="0.817308" stop-color="#00ACEE"/>
</linearGradient>
<linearGradient id="paint2_linear_2_1062" x1="11.625" y1="46.3542" x2="78.375" y2="46.3542" gradientUnits="userSpaceOnUse">
<stop offset="0.0673077" stop-color="#013C75" stop-opacity="0.8"/>
<stop offset="0.817308" stop-color="#00ACEE"/>
</linearGradient>
<linearGradient id="paint3_linear_2_1062" x1="74.6667" y1="70.4583" x2="82.0833" y2="70.4583" gradientUnits="userSpaceOnUse">
<stop offset="0.0673077" stop-color="#013C75" stop-opacity="0.8"/>
<stop offset="0.817308" stop-color="#00ACEE"/>
</linearGradient>
<linearGradient id="paint4_linear_2_1062" x1="56.125" y1="70.4583" x2="63.5417" y2="70.4583" gradientUnits="userSpaceOnUse">
<stop offset="0.0673077" stop-color="#013C75" stop-opacity="0.8"/>
<stop offset="0.817308" stop-color="#00ACEE"/>
</linearGradient>
<clipPath id="clip0_2_1062">
<rect width="89" height="89" fill="white" transform="translate(0.5)"/>
</clipPath>
</defs>
</svg>
