<svg width="30" height="30" viewBox="0 0 30 30" fill="none" xmlns="http://www.w3.org/2000/svg">
<path d="M17.8805 17.019L20.5758 18.3643C20.448 19.0027 20.1027 19.577 19.5988 19.9893C19.0949 20.4015 18.4636 20.6262 17.8125 20.6249C15.5755 20.6224 13.4308 19.7327 11.849 18.1509C10.2672 16.5691 9.37748 14.4244 9.375 12.1874C9.37482 11.5371 9.59996 10.9069 10.0121 10.404C10.4243 9.901 10.9979 9.5564 11.6355 9.42879L12.9809 12.1241L11.8359 13.828C11.7504 13.9563 11.6978 14.1038 11.6829 14.2573C11.668 14.4108 11.6912 14.5657 11.7504 14.7081C12.4212 16.3023 13.6894 17.5705 15.2836 18.2413C15.4264 18.3032 15.5824 18.3285 15.7375 18.315C15.8926 18.3015 16.0419 18.2496 16.1719 18.1639L17.8805 17.019ZM27.1875 14.9999C27.188 17.104 26.6436 19.1724 25.6075 21.0038C24.5714 22.8352 23.0788 24.3671 21.275 25.4505C19.4712 26.5338 17.4177 27.1317 15.3142 27.186C13.2108 27.2402 11.1291 26.749 9.27187 25.76L5.28164 27.0901C4.95127 27.2003 4.59675 27.2163 4.2578 27.1363C3.91886 27.0563 3.60889 26.8835 3.36264 26.6372C3.11638 26.391 2.94358 26.081 2.86359 25.7421C2.7836 25.4031 2.79959 25.0486 2.90977 24.7182L4.23984 20.728C3.37049 19.0935 2.88492 17.2824 2.82 15.4323C2.75508 13.5821 3.11251 11.7415 3.86516 10.05C4.61781 8.35863 5.7459 6.86091 7.16381 5.67058C8.58171 4.48024 10.2522 3.62857 12.0484 3.18021C13.8446 2.73184 15.7193 2.69858 17.5303 3.08293C19.3412 3.46729 21.0409 4.25916 22.5001 5.39844C23.9593 6.53773 25.1399 7.99448 25.952 9.65812C26.7642 11.3218 27.1867 13.1486 27.1875 14.9999ZM22.5 17.8124C22.5001 17.6382 22.4517 17.4675 22.3602 17.3193C22.2688 17.171 22.1378 17.0513 21.982 16.9733L18.232 15.0983C18.0844 15.0248 17.92 14.9914 17.7554 15.0017C17.5908 15.012 17.4318 15.0655 17.2945 15.1569L15.573 16.3054C14.7828 15.8709 14.1325 15.2206 13.698 14.4304L14.8465 12.7089C14.9378 12.5716 14.9914 12.4126 15.0017 12.248C15.012 12.0834 14.9786 11.919 14.9051 11.7714L13.0301 8.02137C12.9524 7.86442 12.8322 7.73238 12.6833 7.64021C12.5344 7.54804 12.3626 7.49943 12.1875 7.49988C10.9443 7.49988 9.75201 7.99374 8.87294 8.87282C7.99386 9.7519 7.5 10.9442 7.5 12.1874C7.5031 14.9215 8.59059 17.5427 10.5239 19.476C12.4572 21.4093 15.0784 22.4968 17.8125 22.4999C18.4281 22.4999 19.0376 22.3786 19.6063 22.1431C20.175 21.9075 20.6918 21.5622 21.1271 21.1269C21.5623 20.6917 21.9076 20.1749 22.1432 19.6062C22.3788 19.0375 22.5 18.428 22.5 17.8124Z" fill="#2565AA"/>
</svg>
