<svg width="147" height="721" viewBox="0 0 147 721" fill="none" xmlns="http://www.w3.org/2000/svg">
<path opacity="0.12" d="M74.7066 623L75.2626 720.5L72.885 303.546M74.7066 623C74.4495 604.77 97.3068 503.926 141.5 503.5M74.7066 623C71.8576 603.166 55.5 572.5 11.5 572.5M72.885 303.546C72.6278 285.315 93.8068 206.426 138 206M72.885 303.546L73.0188 327M72.885 303.546C72.8831 303.411 73.0188 160.955 73.0188 327M73.0188 327L73.2364 340.003L69.9722 1.30684M73.0188 327C73.197 345.5 76.7108 283 3 283M69.9722 1.30684L69.9683 0.899508C69.969 1.03626 69.9703 1.17208 69.9722 1.30684Z" stroke="black" stroke-width="2" stroke-dasharray="2 2"/>
<circle cx="140.543" cy="503.543" r="4.5" transform="rotate(-0.552174 140.543 503.543)" fill="#22A75D"/>
<circle cx="6.54316" cy="572.543" r="4.5" transform="rotate(-0.552174 6.54316 572.543)" fill="#22A75D"/>
<circle cx="141.543" cy="205.543" r="4.5" transform="rotate(-0.552174 141.543 205.543)" fill="#22A75D"/>
<circle cx="4.54316" cy="281.543" r="4.5" transform="rotate(-0.552174 4.54316 281.543)" fill="#22A75D"/>
</svg>
