<svg width="173" height="175" viewBox="0 0 173 175" fill="none" xmlns="http://www.w3.org/2000/svg">
<g filter="url(#filter0_d_102_60)">
<rect x="4" width="165" height="166.443" rx="16" fill="url(#paint0_linear_102_60)" shape-rendering="crispEdges"/>
<g clip-path="url(#clip0_102_60)">
<path d="M169 0H4V166.443H169V0Z" fill="url(#paint1_linear_102_60)"/>
</g>
<path d="M48.204 109L64.332 61.32H77.516L93.644 109H82.828L79.628 99.272H62.156L58.956 109H48.204ZM64.908 90.632H76.876L69.58 68.104H72.268L64.908 90.632ZM103.988 109V69.96H91.8915V61.32H125.812V69.96H113.908V109H103.988Z" fill="white"/>
</g>
<defs>
<filter id="filter0_d_102_60" x="0" y="0" width="173" height="174.443" filterUnits="userSpaceOnUse" color-interpolation-filters="sRGB">
<feFlood flood-opacity="0" result="BackgroundImageFix"/>
<feColorMatrix in="SourceAlpha" type="matrix" values="0 0 0 0 0 0 0 0 0 0 0 0 0 0 0 0 0 0 127 0" result="hardAlpha"/>
<feOffset dy="4"/>
<feGaussianBlur stdDeviation="2"/>
<feComposite in2="hardAlpha" operator="out"/>
<feColorMatrix type="matrix" values="0 0 0 0 0 0 0 0 0 0 0 0 0 0 0 0 0 0 0.25 0"/>
<feBlend mode="normal" in2="BackgroundImageFix" result="effect1_dropShadow_102_60"/>
<feBlend mode="normal" in="SourceGraphic" in2="effect1_dropShadow_102_60" result="shape"/>
</filter>
<linearGradient id="paint0_linear_102_60" x1="86.5" y1="0" x2="86.5" y2="166.443" gradientUnits="userSpaceOnUse">
<stop stop-color="white"/>
<stop offset="1" stop-color="#999999"/>
</linearGradient>
<linearGradient id="paint1_linear_102_60" x1="86.5" y1="0" x2="86.5" y2="166.443" gradientUnits="userSpaceOnUse">
<stop stop-color="#00ACEE"/>
<stop offset="1" stop-color="#5489FF"/>
</linearGradient>
<clipPath id="clip0_102_60">
<rect x="4" width="165" height="166.443" rx="16" fill="white"/>
</clipPath>
</defs>
</svg>
