<svg width="626" height="753" viewBox="0 0 626 753" fill="none" xmlns="http://www.w3.org/2000/svg">
<path d="M468.37 738.96L413.28 716.66" stroke="#023E6F" stroke-width="8.92" stroke-miterlimit="10"/>
<path d="M603.1 56.7001L463.1 8.35009C449.518 3.67497 434.762 3.67497 421.18 8.35009L280.18 56.7501V711.75L414.96 717.37L473.37 740.93L610.5 689.15L603.1 56.7001Z" fill="url(#paint0_linear_0_1)" stroke="#023E6F" stroke-width="8.92" stroke-miterlimit="10"/>
<path d="M422.75 550.22L422.49 693.61C422.49 708.9 412.43 721.12 399.61 724.36L395.67 725.05L312.21 739.81C318.322 738.648 323.833 735.38 327.785 730.575C331.737 725.77 333.879 719.732 333.84 713.51V709.6L334.06 592.28C334.113 586.436 332.243 580.737 328.74 576.059C325.236 571.381 320.293 567.984 314.67 566.39L255.21 550.08L219.3 540.23C215.733 539.241 211.994 539.04 208.342 539.641C204.689 540.242 201.212 541.631 198.15 543.71L266.05 494.71C269.596 491.534 273.889 489.308 278.529 488.242C283.168 487.175 288.003 487.302 292.58 488.61L400.75 519.54C413.74 523.31 422.77 535.87 422.75 550.22Z" fill="url(#paint1_linear_0_1)" stroke="#023E6F" stroke-width="8.92" stroke-miterlimit="10"/>
<path d="M241.2 268.18L240.94 411.57C240.94 426.87 230.88 439.09 218.06 442.32L214.12 443.02L130.66 457.78C136.772 456.618 142.283 453.35 146.235 448.545C150.187 443.74 152.329 437.701 152.29 431.48V427.56L152.51 310.24C152.563 304.396 150.693 298.696 147.19 294.018C143.687 289.341 138.743 285.944 133.12 284.35L73.6801 268L37.7701 258.15C34.2017 257.161 30.4609 256.96 26.807 257.561C23.1531 258.162 19.6737 259.55 16.6101 261.63L84.5201 212.68C88.065 209.505 92.3567 207.281 96.9944 206.214C101.632 205.147 106.464 205.273 111.04 206.58L219.21 237.51C232.2 241.28 241.22 253.84 241.2 268.18Z" fill="url(#paint2_linear_0_1)" stroke="#023E6F" stroke-width="8.92" stroke-miterlimit="10"/>
<path d="M422.75 334.44L422.49 477.83C422.49 493.12 412.43 505.34 399.61 508.58L395.67 509.27L312.21 524C318.322 522.834 323.832 519.563 327.783 514.757C331.735 509.951 333.878 503.912 333.84 497.69V493.78L334.06 376.46C334.113 370.616 332.243 364.916 328.74 360.238C325.236 355.561 320.293 352.164 314.67 350.57L255.22 334.3L219.31 324.45C215.743 323.461 212.004 323.26 208.352 323.861C204.699 324.462 201.222 325.85 198.16 327.93L266.06 279C269.606 275.824 273.899 273.598 278.539 272.531C283.178 271.465 288.013 271.591 292.59 272.9L400.76 303.83C413.74 307.54 422.77 320.09 422.75 334.44Z" fill="url(#paint3_linear_0_1)" stroke="#023E6F" stroke-width="8.92" stroke-miterlimit="10"/>
<path d="M422.75 118.62L422.49 262C422.49 277.3 412.43 289.52 399.61 292.75L395.67 293.45L312.21 308.21C318.322 307.048 323.833 303.78 327.785 298.975C331.737 294.17 333.879 288.131 333.84 281.91V278L334.06 160.68C334.113 154.836 332.243 149.136 328.74 144.458C325.236 139.78 320.293 136.383 314.67 134.79L255.21 118.48L219.3 108.63C215.733 107.641 211.994 107.44 208.342 108.041C204.689 108.642 201.212 110.03 198.15 112.11L266.05 63.1099C269.597 59.936 273.891 57.712 278.53 56.6453C283.169 55.5787 288.002 55.7041 292.58 57.0099L400.76 87.9999C413.74 91.7199 422.77 104.28 422.75 118.62Z" fill="url(#paint4_linear_0_1)" stroke="#023E6F" stroke-width="8.92" stroke-miterlimit="10"/>
<path d="M334.07 592.28L333.85 709.6V713.51C333.889 719.731 331.747 725.77 327.795 730.575C323.843 735.38 318.332 738.648 312.22 739.81L311.48 739.95C307.977 740.466 304.405 740.248 300.99 739.31L205.82 713.5C200.189 711.924 195.233 708.539 191.716 703.868C188.199 699.196 186.317 693.497 186.36 687.65V566.07C186.334 561.931 187.269 557.842 189.091 554.125C190.913 550.408 193.572 547.165 196.86 544.65L198.07 543.77L198.16 543.71C201.222 541.63 204.7 540.242 208.352 539.641C212.004 539.04 215.743 539.241 219.31 540.23L255.22 550.08L314.68 566.39C320.303 567.983 325.246 571.38 328.75 576.058C332.253 580.736 334.123 586.436 334.07 592.28ZM133.13 284.35L73.6799 268L37.77 258.15C34.2016 257.161 30.4607 256.96 26.8069 257.561C23.153 258.161 19.6736 259.55 16.61 261.63L16.52 261.69L15.31 262.57C12.0222 265.087 9.36284 268.332 7.54096 272.051C5.71907 275.769 4.78425 279.859 4.80995 284V405.61C4.76985 411.458 6.65285 417.156 10.1691 421.829C13.6853 426.502 18.6398 429.889 24.27 431.47L119.41 457.28C122.825 458.215 126.397 458.429 129.9 457.91L130.63 457.78C136.742 456.618 142.253 453.35 146.205 448.545C150.157 443.74 152.299 437.701 152.26 431.48V427.56L152.48 310.24C152.535 304.401 150.672 298.705 147.176 294.028C143.68 289.351 138.745 285.951 133.13 284.35ZM314.68 350.61L255.22 334.3L219.31 324.45C215.743 323.461 212.004 323.26 208.352 323.861C204.7 324.462 201.222 325.85 198.16 327.93L198.07 327.99L196.86 328.87C193.572 331.385 190.913 334.628 189.091 338.345C187.269 342.062 186.334 346.151 186.36 350.29V471.87C186.317 477.717 188.199 483.416 191.716 488.088C195.233 492.759 200.189 496.144 205.82 497.72L301 523.54C304.416 524.469 307.987 524.684 311.49 524.17L312.23 524.04C318.342 522.874 323.852 519.603 327.803 514.797C331.755 509.991 333.898 503.952 333.86 497.73V493.82L334.08 376.5C334.132 370.655 332.261 364.954 328.756 360.276C325.251 355.598 320.305 352.202 314.68 350.61ZM314.68 134.79L255.22 118.48L219.31 108.63C215.743 107.641 212.004 107.44 208.352 108.041C204.7 108.642 201.222 110.03 198.16 112.11L198.07 112.17L196.86 113.05C193.572 115.567 190.913 118.812 189.091 122.531C187.269 126.249 186.334 130.339 186.36 134.48V256.05C186.318 261.898 188.201 267.598 191.717 272.271C195.233 276.944 200.189 280.331 205.82 281.91L301 307.72C304.415 308.654 307.987 308.869 311.49 308.35L312.23 308.22C318.342 307.058 323.853 303.79 327.805 298.985C331.757 294.18 333.899 288.141 333.86 281.92V278L334.08 160.68C334.132 154.835 332.261 149.134 328.756 144.456C325.251 139.778 320.305 136.382 314.68 134.79Z" fill="white" stroke="#023E6F" stroke-width="8.92" stroke-miterlimit="10"/>
<mask id="mask0_0_1" style="mask-type:luminance" maskUnits="userSpaceOnUse" x="217" y="580" width="84" height="126">
<path d="M300.39 705.82L217.46 682.57L217.42 580.88L300.36 604.13L300.39 705.82Z" fill="white"/>
</mask>
<g mask="url(#mask0_0_1)">
<path d="M217.42 580.88L237.05 586.39L258.92 662.63L280.73 598.63L300.36 604.13L268.01 696.75L249.85 691.65L217.42 580.88Z" fill="#023E6F"/>
</g>
<mask id="mask1_0_1" style="mask-type:luminance" maskUnits="userSpaceOnUse" x="217" y="140" width="84" height="127">
<path d="M300.99 266.04L217.6 242.78L217.56 140.81L300.95 164.06L300.99 266.04Z" fill="white"/>
</mask>
<g mask="url(#mask1_0_1)">
<path d="M250.12 149.89L268.38 154.98L300.99 266.04L281.25 260.53L259.26 184.09L237.33 248.28L217.6 242.78L250.12 149.89Z" fill="#023E6F"/>
</g>
<mask id="mask2_0_1" style="mask-type:luminance" maskUnits="userSpaceOnUse" x="209" y="382" width="94" height="91">
<path d="M302.38 472.91L209.99 447.69L209.96 382.23L302.35 407.45L302.38 472.91Z" fill="white"/>
</mask>
<g mask="url(#mask2_0_1)">
<path d="M209.96 382.23L302.37 456.15L302.38 472.91L209.97 398.99L209.96 382.23Z" fill="#023E6F"/>
</g>
<mask id="mask3_0_1" style="mask-type:luminance" maskUnits="userSpaceOnUse" x="19" y="277" width="111" height="152">
<path d="M129.19 428.34L19.9499 397.14L19.8999 277.18L129.14 308.39L129.19 428.34Z" fill="white"/>
</mask>
<g mask="url(#mask3_0_1)">
<path d="M41.79 339.19L65.56 378.06C64.1886 378.343 62.9023 378.943 61.8035 379.811C60.7046 380.679 59.8234 381.792 59.23 383.06L35.23 343.77C36.614 343.591 37.9352 343.084 39.0833 342.291C40.2315 341.498 41.1732 340.441 41.83 339.21" fill="#023E6F"/>
<path d="M105.17 387.7C105.21 388.985 105.35 390.266 105.59 391.53C105.827 392.813 106.161 394.077 106.59 395.31L81.44 397.57C81.3967 396.284 81.253 395.003 81.01 393.74C80.7782 392.455 80.4438 391.191 80.01 389.96L105.16 387.7" fill="#023E6F"/>
<path d="M87.2599 326.45C88.8111 328.458 90.8486 330.038 93.1799 331.04L76.1799 383.04C74.6042 381.042 72.5367 379.488 70.1799 378.53L87.1799 326.42" fill="#023E6F"/>
<path d="M31.88 310.46C37.17 311.97 42.03 318.17 43.5 325.91C44.5 331.09 43.75 335.91 41.79 339.19C41.1333 340.421 40.1915 341.478 39.0434 342.271C37.8953 343.064 36.5741 343.571 35.19 343.75H35.08C33.9994 343.843 32.911 343.734 31.87 343.43C26.58 341.92 21.73 335.73 20.26 327.99C18.48 318.7 22.26 310.71 28.68 310.13C29.7573 310.037 30.8425 310.145 31.88 310.45" fill="#023E6F"/>
<path d="M69.4101 378.29L70.2201 378.56C72.5769 379.518 74.6444 381.072 76.2201 383.07C77.87 385.145 79.1489 387.489 80.0001 390C80.4339 391.231 80.7683 392.495 81.0001 393.78C81.243 395.043 81.3868 396.324 81.4301 397.61C81.6501 405.17 78.0901 411.13 72.5801 411.61C71.4995 411.703 70.4111 411.594 69.3701 411.29C64.0801 409.78 59.2201 403.59 57.7501 395.85C56.7878 391.522 57.3091 386.996 59.2301 383C59.8235 381.731 60.7046 380.619 61.8035 379.751C62.9024 378.883 64.1887 378.283 65.5601 378C65.7801 378 65.9901 377.93 66.2201 377.91C67.2941 377.817 68.3759 377.926 69.4101 378.23" fill="#023E6F"/>
<path d="M94.1301 298.38C99.4202 299.9 104.28 306.08 105.75 313.82C107.52 323.11 103.75 331.11 97.3301 331.68C96.2528 331.773 95.1676 331.665 94.1301 331.36C93.8102 331.27 93.5001 331.16 93.1801 331.04C90.8488 330.038 88.8114 328.458 87.2602 326.45C84.836 323.378 83.2016 319.759 82.5001 315.91C80.7301 306.63 84.5001 298.64 90.9301 298.06C92.0074 297.972 93.0916 298.08 94.1301 298.38Z" fill="#023E6F"/>
<path d="M117.22 374C122.51 375.52 127.37 381.71 128.85 389.45C130.61 398.74 126.85 406.73 120.42 407.3C119.339 407.398 118.25 407.289 117.21 406.98C112.82 405.73 108.72 401.24 106.62 395.32C106.191 394.087 105.857 392.824 105.62 391.54C105.38 390.276 105.24 388.996 105.2 387.71C104.97 380.15 108.53 374.18 114.05 373.71C115.127 373.624 116.211 373.732 117.25 374.03" fill="#023E6F"/>
</g>
<mask id="mask4_0_1" style="mask-type:luminance" maskUnits="userSpaceOnUse" x="448" y="43" width="178" height="710">
<path d="M448.9 752.41L450.13 95.5001L625.48 43.8101L624.25 700.73L448.9 752.41Z" fill="white"/>
</mask>
<g mask="url(#mask4_0_1)">
<path d="M594.63 52.9001L481 86.4101C464 91.4101 450.12 114.91 450.07 138.84L449.07 709.07C449.07 733 462.8 748.34 479.83 743.32L593.49 709.82C610.49 704.82 624.37 681.32 624.42 657.39L625.42 87.1501C625.47 63.2201 611.69 47.8801 594.66 52.9001" fill="#023E6F"/>
</g>
<mask id="mask5_0_1" style="mask-type:luminance" maskUnits="userSpaceOnUse" x="476" y="149" width="130" height="470">
<path d="M476.25 618.08L477.05 185.64L605.18 149.01L604.37 581.45L476.25 618.08Z" fill="white"/>
</mask>
<g mask="url(#mask5_0_1)">
<path d="M593.35 442.33L589.88 445C580.59 452 571.88 458.67 563.15 465.6C561.432 467.261 560.154 469.323 559.43 471.6C555.8 483.52 552.32 495.75 548.95 507.6C547.617 512.353 546.257 517.103 544.87 521.85C544.41 523.44 543.87 524.98 543.34 526.78C543.05 527.68 542.73 528.68 542.34 529.78L539.34 539.2L536.67 531.2L532.19 517.89C528.19 506.19 524.52 495.13 520.87 483.89C519.87 480.89 518.87 479.78 516.61 479.43C509.32 478.26 501.98 476.81 494.9 475.43C492.17 474.89 489.45 474.35 486.73 473.84L489.56 482.16C501.94 518.65 514.74 556.38 527.46 593.37C527.851 593.832 528.407 594.123 529.01 594.18C531.01 593.73 533.07 593.18 535.12 592.6L538.25 591.68L541.52 590.68C543.52 590.1 545.62 589.54 547.68 589.08L548.36 588.91C550.48 588.31 551.23 587.23 552.19 583.84C557.99 563.37 564.07 542.63 569.94 522.57L577.2 497.73C581.39 483.32 585.58 468.89 589.92 453.95L593.29 442.35M530.17 311.92C528.99 312.25 528.65 312.74 527.95 315.17C519.88 343.53 511.59 372.32 503.56 400.17L495.4 428.49C493.02 436.78 490.65 445.07 488.17 453.72L487.27 456.85L495.45 450.85C502.45 445.69 509.63 440.36 516.78 435.29C518.9 433.78 519.92 432.22 520.78 429.08C524.66 415.15 528.63 401.43 532.78 386.91C534.307 381.577 535.857 376.207 537.43 370.8L540.17 361.25L543.07 369.07C543.42 369.99 543.72 370.78 543.99 371.52C544.52 372.91 544.99 374.11 545.4 375.34C546.793 379.453 548.18 383.557 549.56 387.65C552.92 397.65 556.4 407.93 559.9 417.98C560.186 419.129 560.749 420.19 561.54 421.07C571.12 423.19 580.66 425.07 590.74 426.96L593.74 427.54L590.59 418.44C578.02 381.98 565.01 344.29 552.08 307.35C551.839 307.08 551.543 306.866 551.211 306.721C550.88 306.576 550.522 306.504 550.16 306.51C547.85 307.02 545.5 307.65 543.16 308.32L539.86 309.32L536.37 310.32C534.44 310.87 532.49 311.4 530.54 311.86L530.09 311.98M540.89 179.5L506.68 236.43L540.68 273.86L574.89 216.92L540.89 179.5Z" fill="white"/>
<path d="M539.4 539.16L542.4 529.74C542.75 528.62 543.07 527.62 543.4 526.74C543.98 524.94 544.47 523.4 544.93 521.81C546.297 517.063 547.657 512.313 549.01 507.56C552.38 495.74 555.86 483.56 559.49 471.56C560.214 469.283 561.492 467.221 563.21 465.56C571.89 458.63 580.65 452 589.94 444.96L593.41 442.34L590 453.93C585.66 468.87 581.47 483.3 577.28 497.71L570 522.55C564.13 542.61 558 563.35 552.25 583.82C551.25 587.21 550.54 588.29 548.42 588.89L547.74 589.06C545.68 589.52 543.62 590.06 541.58 590.66L538.31 591.66L535.18 592.58C533.18 593.16 531.08 593.71 529.07 594.16C528.467 594.103 527.911 593.812 527.52 593.35C514.8 556.35 502 518.63 489.62 482.14L486.79 473.82C489.51 474.33 492.23 474.87 494.96 475.41C502.04 476.81 509.38 478.26 516.67 479.41C518.89 479.76 519.96 480.89 520.93 483.87C524.58 495.15 528.3 506.21 532.25 517.87L536.73 531.18L539.4 539.18M539.73 518.18C539.13 516.42 538.537 514.663 537.95 512.91C534 501.21 530.3 490.17 526.67 479C525.02 473.9 522.53 471.36 518.59 470.73C511.37 469.58 504.07 468.13 497.01 466.73C494.15 466.157 491.283 465.597 488.41 465.05L497.41 458.43C504.35 453.3 511.53 447.99 518.62 442.97C522.51 440.2 524.96 436.43 526.54 430.74C530.41 416.87 534.37 403.17 538.54 388.68L540.41 382.21L543.94 392.65C547.3 402.65 550.79 412.96 554.3 423.05C555.69 427.05 557.41 429.27 559.42 429.71C569.08 431.85 578.65 433.71 588.79 435.63L590.02 435.87L587.92 437.46C578.6 444.52 569.79 451.18 561.04 458.18C558.15 460.49 555.19 465.18 553.84 469.65C550.18 481.65 546.67 493.97 543.28 505.86C542.113 509.967 540.94 514.077 539.76 518.19M487.3 456.89L488.2 453.76C490.68 445.11 493.05 436.82 495.43 428.53L503.59 400.21C511.59 372.36 519.91 343.57 527.98 315.21C528.68 312.78 528.98 312.29 530.2 311.96L530.65 311.84C532.65 311.38 534.55 310.84 536.48 310.3L539.97 309.3L543.27 308.3C545.6 307.63 547.95 307 550.27 306.49C550.632 306.484 550.99 306.556 551.321 306.701C551.653 306.846 551.949 307.06 552.19 307.33C565.12 344.27 578.13 381.96 590.7 418.42L593.85 427.52L590.85 426.94C580.77 425 571.23 423.17 561.65 421.05C560.859 420.17 560.296 419.109 560.01 417.96C556.51 407.91 553.01 397.6 549.67 387.63C548.283 383.53 546.897 379.427 545.51 375.32C545.09 374.09 544.63 372.89 544.1 371.5C543.83 370.76 543.53 369.97 543.18 369.05L540.28 361.23L537.54 370.78C535.967 376.227 534.417 381.597 532.89 386.89C528.7 401.41 524.73 415.13 520.89 429.06C520.02 432.2 519 433.76 516.89 435.27C509.74 440.34 502.53 445.67 495.56 450.83L487.38 456.83M530.46 303.29C526.54 304.41 524.04 307.56 522.37 313.42C514.31 341.75 506.01 370.55 497.99 398.42L489.83 426.74C487.34 435 485 443.32 482.48 452L479 464.17L477.51 464.06L478.12 467.24L476.53 472.79L478.88 471.27C478.88 471.45 478.88 471.61 478.96 471.76C479.054 472.438 479.204 473.107 479.41 473.76L483.93 487.1C496.33 523.62 509.13 561.39 521.87 598.42C522.333 599.83 523.273 601.035 524.529 601.825C525.786 602.616 527.278 602.943 528.75 602.75C530.92 602.27 533.09 601.69 535.24 601.07L538.34 600.17L541.63 599.17C543.63 598.62 545.53 598.09 547.45 597.67L548.25 597.47C552.99 596.11 556 592.38 557.95 585.47C563.75 565.05 569.81 544.34 575.68 524.3C578.1 516.02 580.52 507.733 582.94 499.44C587.13 485.03 591.32 470.6 595.66 455.65L600.83 437.86L602.92 438.26L602.21 433.11L604.67 424.61L601.18 427.26L596.35 413.26C583.77 376.77 570.75 339.04 557.8 302.06C557.281 300.611 556.273 299.388 554.95 298.601C553.627 297.814 552.071 297.513 550.55 297.75C548.12 298.28 545.67 298.95 543.26 299.64C542.14 299.95 541.03 300.28 539.94 300.64C538.85 301 537.61 301.33 536.43 301.64C534.57 302.17 532.7 302.64 530.87 303.12L530.36 303.25M540.72 273.8L506.72 236.37L540.93 179.44L574.93 216.86L540.72 273.8ZM540.92 167.32L497.92 238.88L540.69 285.88L583.69 214.32L540.92 167.32Z" fill="#023E6F"/>
</g>
<defs>
<linearGradient id="paint0_linear_0_1" x1="445.32" y1="4.82009" x2="445.32" y2="740.88" gradientUnits="userSpaceOnUse">
<stop stop-color="#00B5FC"/>
<stop offset="0.14" stop-color="#02AEF7"/>
<stop offset="0.34" stop-color="#099CE8"/>
<stop offset="0.57" stop-color="#137ECF"/>
<stop offset="0.83" stop-color="#2155AE"/>
<stop offset="1" stop-color="#2C3594"/>
</linearGradient>
<linearGradient id="paint1_linear_0_1" x1="198.16" y1="613.69" x2="422.75" y2="613.69" gradientUnits="userSpaceOnUse">
<stop stop-color="#2C3594"/>
<stop offset="0.05" stop-color="#28409D"/>
<stop offset="0.26" stop-color="#1A69BF"/>
<stop offset="0.46" stop-color="#0F8AD9"/>
<stop offset="0.66" stop-color="#07A2EC"/>
<stop offset="0.84" stop-color="#02B0F8"/>
<stop offset="1" stop-color="#00B5FC"/>
</linearGradient>
<linearGradient id="paint2_linear_0_1" x1="16.6101" y1="331.65" x2="241.2" y2="331.65" gradientUnits="userSpaceOnUse">
<stop stop-color="#2C3594"/>
<stop offset="0.05" stop-color="#28409D"/>
<stop offset="0.26" stop-color="#1A69BF"/>
<stop offset="0.46" stop-color="#0F8AD9"/>
<stop offset="0.66" stop-color="#07A2EC"/>
<stop offset="0.84" stop-color="#02B0F8"/>
<stop offset="1" stop-color="#00B5FC"/>
</linearGradient>
<linearGradient id="paint3_linear_0_1" x1="198.16" y1="397.91" x2="422.75" y2="397.91" gradientUnits="userSpaceOnUse">
<stop stop-color="#2C3594"/>
<stop offset="0.05" stop-color="#28409D"/>
<stop offset="0.26" stop-color="#1A69BF"/>
<stop offset="0.46" stop-color="#0F8AD9"/>
<stop offset="0.66" stop-color="#07A2EC"/>
<stop offset="0.84" stop-color="#02B0F8"/>
<stop offset="1" stop-color="#00B5FC"/>
</linearGradient>
<linearGradient id="paint4_linear_0_1" x1="198.16" y1="182.09" x2="422.75" y2="182.09" gradientUnits="userSpaceOnUse">
<stop stop-color="#2C3594"/>
<stop offset="0.05" stop-color="#28409D"/>
<stop offset="0.26" stop-color="#1A69BF"/>
<stop offset="0.46" stop-color="#0F8AD9"/>
<stop offset="0.66" stop-color="#07A2EC"/>
<stop offset="0.84" stop-color="#02B0F8"/>
<stop offset="1" stop-color="#00B5FC"/>
</linearGradient>
</defs>
</svg>
