<svg width="544" height="168" viewBox="0 0 544 168" fill="none" xmlns="http://www.w3.org/2000/svg">
<path d="M383.54 142H367.75V76.0002H382.49C382.68 78.2702 382.86 80.5102 383.07 83.0002C394 70.1902 411 71.7002 420.71 84.2202C424.25 79.5602 428.66 76.2202 434.44 74.9102C440.98 73.4502 447.44 73.4202 453.44 76.7302C461.23 80.9902 464.07 88.2702 465.15 96.5202C465.305 98.0952 465.355 99.6786 465.3 101.26C465.3 114.71 465.3 128.17 465.3 141.84H448.94C448.94 135.3 448.94 128.9 448.94 122.51C448.86 114.94 449.01 107.34 448.43 99.8102C447.77 91.3802 441.67 87.2602 433.43 88.9602C428.94 89.8902 425.31 94.6402 425.07 101.05C424.68 111.67 424.73 122.3 424.61 132.93C424.61 135.85 424.61 138.78 424.61 141.87H408.61V132.41C408.61 123.15 408.73 113.88 408.61 104.62C408.56 101.788 408.081 98.9793 407.19 96.2902C406.468 94.053 405.071 92.0942 403.191 90.6825C401.311 89.2707 399.041 88.4752 396.691 88.4051C394.341 88.335 392.027 88.9937 390.066 90.2909C388.106 91.588 386.594 93.4601 385.74 95.6502C384.476 99.7436 383.802 103.997 383.74 108.28C383.36 119.42 383.54 130.57 383.54 142Z" fill="#023E6F"/>
<path d="M492.09 167.09H476.32V75.9999H491.32C491.56 78.3199 491.8 80.6699 492.05 83.1399C492.38 82.9899 492.71 82.9299 492.87 82.7399C504.34 69.3799 523.49 72.4399 533.73 83.1099C547.45 97.4199 546.4 124.62 531.42 137.54C526.291 142.092 519.622 144.521 512.767 144.335C505.912 144.15 499.385 141.363 494.51 136.54C493.902 135.832 493.366 135.065 492.91 134.25L492.11 134.75L492.09 167.09ZM528 108.65C527.23 105.52 526.86 102.23 525.63 99.2999C522.76 92.4699 517.19 88.82 509.94 88.46C502.94 88.11 497.61 91.6599 494.5 97.9299C492.672 101.446 491.758 105.365 491.842 109.326C491.926 113.288 493.005 117.165 494.98 120.6C496.058 122.624 497.543 124.404 499.341 125.827C501.139 127.251 503.211 128.288 505.428 128.874C507.646 129.46 509.96 129.582 512.227 129.232C514.493 128.882 516.663 128.067 518.6 126.84C525.25 122.71 527.24 116.15 528 108.65Z" fill="#023E6F"/>
<path d="M167 97.05H152C152.72 85.64 159.46 78.05 171.68 75.11C181.84 72.67 191.68 73.37 200.9 78.83C207.05 82.47 211.08 87.83 211.26 94.83C211.68 110.47 211.39 126.13 211.39 141.92H196.59C196.36 139.1 196.14 136.41 195.88 133.3C194.36 134.94 193.18 136.44 191.79 137.7C183.3 145.32 166.39 146.46 156.89 140.12C149.99 135.51 147.05 127.28 149.15 118.41C150.82 111.32 157.21 105.79 165.64 104.95C172.01 104.32 178.45 104.45 184.85 104.26C185.59 104.26 186.32 104.26 187.06 104.26C190.16 104.21 193.33 104.26 194.82 100.75C195.98 98.05 194.49 93.44 191.82 91.01C187.1 86.7 176.27 86.37 171.56 90.67C169.77 92.27 168.65 94.63 167 97.05ZM195.53 113.72C188.21 114.08 181.09 114.3 174 114.83C169.26 115.18 166.27 118.21 166 122.27C165.942 124.29 166.604 126.266 167.868 127.843C169.132 129.42 170.916 130.497 172.9 130.88C182.22 133.11 195.72 128.3 195.48 113.72H195.53Z" fill="#023E6F"/>
<path d="M326.22 144C306.68 144.07 292.4 129.31 292.34 109C292.29 89.4302 307.2 73.9402 326.13 73.9102C345.54 73.9102 360.52 88.9702 360.57 108.62C360.62 128.91 346 143.94 326.22 144ZM308 109C309.11 112.77 309.67 116.83 311.44 120.27C317.27 131.61 331.2 132.91 339.38 123.16C345.92 115.37 345.92 102.37 339.38 94.5602C337.859 92.6326 335.925 91.0704 333.721 89.9882C331.516 88.9059 329.098 88.3313 326.642 88.3063C324.187 88.2814 321.757 88.8068 319.531 89.8441C317.305 90.8813 315.34 92.4039 313.78 94.3002C310.18 98.4902 308.47 103.32 308 109Z" fill="#023E6F"/>
<path d="M92.43 141.89H76V76.0001H92C92.13 78.3701 92.27 80.7201 92.43 83.5701C93.0066 83.1572 93.5576 82.7097 94.08 82.2301C101.5 74.0001 110.65 72.3001 120.8 75.5601C130.95 78.8201 137.18 86.1001 138.73 96.6901C139.55 102.26 139.39 108 139.45 113.69C139.55 123.02 139.45 132.36 139.45 141.88H123.11V138.5C123.11 127.56 123.17 116.62 123.11 105.67C123.04 97.7601 119.03 92.0701 112.53 90.2301C102.16 87.2901 93.17 93.8701 92.72 105.23C92.31 115.74 92.53 126.23 92.47 136.79C92.42 138.45 92.43 140.11 92.43 141.89Z" fill="#023E6F"/>
<path d="M288.57 120.72C283.02 137.47 268.8 145.55 250.82 143.11C231.6 140.49 220.33 126.57 221.05 107.21C221.69 90.13 235.33 75.74 252.05 74.52C270.78 73.14 284.86 81.97 287.73 97.17C282.67 97.17 277.68 97.17 272.68 97.17C272.005 97.0459 271.403 96.6662 271 96.11C269.373 94.0175 267.31 92.3034 264.956 91.086C262.601 89.8687 260.01 89.1772 257.361 89.0593C254.713 88.9413 252.071 89.3999 249.617 90.4031C247.164 91.4064 244.957 92.9304 243.15 94.87C234.95 103.54 237.6 121.14 247.99 126.95C251.717 128.968 256.038 129.597 260.186 128.728C264.334 127.858 268.038 125.545 270.64 122.2C271.156 121.477 271.935 120.985 272.81 120.83C278 120.66 283.27 120.72 288.57 120.72Z" fill="#023E6F"/>
<path d="M64.5999 109.52C57.3599 107.01 50.4499 104.66 43.5999 102.15C42.7361 101.623 42.0849 100.809 41.7599 99.8502C39.0599 93.7002 36.4399 87.5202 33.7599 81.3502C33.4299 80.5802 33.0499 79.8302 32.5099 78.6602C29.3399 86.0002 26.3299 92.8602 23.4599 99.7802C23.2091 100.51 22.7808 101.167 22.2135 101.69C21.6462 102.214 20.9577 102.589 20.2099 102.78C14.5399 104.51 8.91991 106.42 3.27991 108.24C2.57991 108.47 1.83992 108.63 0.669922 108.93C2.71992 104.15 4.58992 99.7802 6.47992 95.4102C12.3699 81.7202 18.2999 68.0402 24.1399 54.3202C24.3203 53.6702 24.7318 53.1083 25.297 52.7401C25.8622 52.3719 26.5424 52.2226 27.2099 52.3202C30.7799 52.4402 34.3699 52.2502 37.9399 52.4202C38.4429 52.4735 38.9279 52.6375 39.3601 52.9003C39.7923 53.163 40.1611 53.5182 40.4399 53.9402C48.4799 72.1202 56.4599 90.3268 64.3799 108.56C64.4692 108.876 64.5426 109.197 64.5999 109.52Z" fill="#023E6F"/>
<path d="M64.6599 109.73C61.0599 117.99 57.7399 125.66 54.3899 133.31C49.8599 143.7 45.2499 154.05 40.8299 164.49C40.5861 165.351 40.0326 166.092 39.2759 166.57C38.5191 167.048 37.6124 167.23 36.7299 167.08C33.3399 166.92 29.9199 167.08 26.5299 166.96C26.062 166.904 25.6128 166.742 25.2162 166.488C24.8196 166.233 24.4858 165.892 24.2399 165.49C16.3999 147.49 8.62325 129.49 0.909912 111.49C0.800866 111.163 0.713993 110.829 0.649902 110.49C1.5199 110.71 2.2399 110.84 2.9299 111.08C8.6999 113.08 14.4399 115.14 20.2499 117.01C21.0298 117.232 21.7441 117.64 22.3312 118.199C22.9183 118.758 23.3605 119.452 23.6199 120.22C26.3799 126.91 29.2499 133.54 32.2899 140.69C32.8599 139.5 33.2899 138.69 33.6199 137.89C36.2499 131.81 38.7799 125.68 41.5399 119.66C42.1672 118.384 43.2318 117.376 44.5399 116.82C50.9999 114.36 57.4899 112.2 64.6599 109.73Z" fill="#023E6F"/>
<path d="M53.6812 21.4515L32.6589 0.429199L11.6367 21.4515L32.6589 42.4737L53.6812 21.4515Z" fill="#023E6F"/>
</svg>
