<svg width="885" height="618" viewBox="0 0 885 618" fill="none" xmlns="http://www.w3.org/2000/svg">
<g opacity="0.4">
<path d="M884.035 610.72H809.449V611.254H884.035V610.72Z" fill="#EBEBEB"/>
<path d="M616.768 616.535H597.198V617.07H616.768V616.535Z" fill="#EBEBEB"/>
<path d="M807.197 590.879H763.981V591.414H807.197V590.879Z" fill="#EBEBEB"/>
<path d="M86.2639 594.471H-11V595.005H86.2639V594.471Z" fill="#EBEBEB"/>
<path d="M120.584 594.471H106.329V595.005H120.584V594.471Z" fill="#EBEBEB"/>
<path d="M377.898 603.493H166.931V604.028H377.898V603.493Z" fill="#EBEBEB"/>
<path d="M30.6169 572.984H84.0344L84.0344 98.9039H30.6169L30.6169 572.984Z" fill="#E0E0E0"/>
<path d="M-11 94.7562V577.132H30.5944V94.7562H-11Z" fill="#E6E6E6"/>
<path d="M82.0301 94.7562V577.132H123.647V94.7562H82.0301Z" fill="#E6E6E6"/>
<path d="M25.6175 94.7562V577.132H130.696V94.7562H25.6175ZM120.832 103.073V189.555H35.5939V103.073H120.832ZM35.5939 379.196V292.692H120.832V379.196H35.5939ZM120.719 387.512V474.016H35.5939V387.512H120.719ZM35.5939 284.375V197.893H120.832V284.375H35.5939ZM35.5939 568.729V482.333H120.832V568.815L35.5939 568.729Z" fill="#F5F5F5"/>
<path d="M77.5712 123.234H65.1626V190.346H77.5712V123.234Z" fill="#EBEBEB"/>
<path d="M65.1626 123.234H55.5691V190.346H65.1626V123.234Z" fill="#E6E6E6"/>
<path d="M96.7582 124.838H77.5712V190.368H96.7582V124.838Z" fill="#E0E0E0"/>
<path d="M106.352 124.838H96.7582V190.368H106.352V124.838Z" fill="#EBEBEB"/>
<path d="M49.1509 124.838H36.3596V190.368H49.1509V124.838Z" fill="#EBEBEB"/>
<path d="M55.5691 124.838H49.1734V190.368H55.5691V124.838Z" fill="#FAFAFA"/>
<path d="M65.1626 284.354H77.5712L77.5712 217.242H65.1626L65.1626 284.354Z" fill="#E6E6E6"/>
<path d="M77.5711 284.354H87.1647L87.1647 217.242H77.5711L77.5711 284.354Z" fill="#EBEBEB"/>
<path d="M45.9756 284.333H65.1626L65.1626 218.803H45.9756L45.9756 284.333Z" fill="#EBEBEB"/>
<path d="M36.3821 284.333H45.9756L45.9756 218.803H36.3821L36.3821 284.333Z" fill="#E0E0E0"/>
<path d="M93.5829 284.333H106.374L106.374 218.803H93.5829L93.5829 284.333Z" fill="#EBEBEB"/>
<path d="M87.1647 284.333H93.5604L93.5604 218.803H87.1647L87.1647 284.333Z" fill="#F0F0F0"/>
<path d="M65.1626 379.987H77.5712L77.5712 312.875H65.1626L65.1626 379.987Z" fill="#E6E6E6"/>
<path d="M77.5711 379.987H87.1647L87.1647 312.875H77.5711L77.5711 379.987Z" fill="#EBEBEB"/>
<path d="M45.9756 379.987H65.1626L65.1626 314.457H45.9756L45.9756 379.987Z" fill="#EBEBEB"/>
<path d="M36.3821 379.987H45.9756L45.9756 314.457H36.3821L36.3821 379.987Z" fill="#E0E0E0"/>
<path d="M93.5829 379.987H106.374L106.374 314.457H93.5829L93.5829 379.987Z" fill="#EBEBEB"/>
<path d="M87.1647 379.987H93.5604L93.5604 314.457H87.1647L87.1647 379.987Z" fill="#F0F0F0"/>
<path d="M77.5712 408.529H65.1626V475.641H77.5712V408.529Z" fill="#EBEBEB"/>
<path d="M65.1626 408.529H55.5691V475.641H65.1626V408.529Z" fill="#E6E6E6"/>
<path d="M96.7582 408.529H77.5712V474.059H96.7582V408.529Z" fill="#E0E0E0"/>
<path d="M106.352 408.529H96.7582V474.059H106.352V408.529Z" fill="#EBEBEB"/>
<path d="M49.1509 408.529H36.3596V474.059H49.1509V408.529Z" fill="#EBEBEB"/>
<path d="M55.5691 408.529H49.1734V474.059H55.5691V408.529Z" fill="#FAFAFA"/>
<path d="M65.1626 571.274H77.5712L77.5712 504.162H65.1626L65.1626 571.274Z" fill="#E6E6E6"/>
<path d="M77.5711 571.274H87.1647L87.1647 504.162H77.5711L77.5711 571.274Z" fill="#EBEBEB"/>
<path d="M45.9756 569.692H65.1626L65.1626 504.162H45.9756L45.9756 569.692Z" fill="#EBEBEB"/>
<path d="M36.3821 569.692H45.9756L45.9756 504.162H36.3821L36.3821 569.692Z" fill="#E0E0E0"/>
<path d="M93.5829 569.692H106.374L106.374 504.162H93.5829L93.5829 569.692Z" fill="#FAFAFA"/>
<path d="M87.1647 569.692H93.5604L93.5604 504.162H87.1647L87.1647 569.692Z" fill="#F0F0F0"/>
<path d="M695.092 244.373C695.092 243.818 695.092 243.262 695.092 242.727L698.493 240.931C698.224 239.407 697.802 237.911 697.232 236.463H693.336C692.851 235.46 692.27 234.501 691.602 233.598L693.606 230.455C692.577 229.243 691.414 228.139 690.138 227.163L686.827 229.065C685.876 228.43 684.866 227.879 683.81 227.419V223.72C682.285 223.179 680.709 222.778 679.103 222.523L677.211 225.751C676.648 225.751 676.063 225.751 675.477 225.751C674.892 225.751 674.306 225.751 673.743 225.751L671.851 222.523C670.246 222.778 668.67 223.179 667.145 223.72V227.419C666.088 227.879 665.078 228.43 664.127 229.065L660.794 227.163C659.53 228.145 658.376 229.249 657.349 230.455L659.353 233.598C658.676 234.496 658.095 235.455 657.619 236.463H653.723C653.142 237.907 652.72 239.405 652.462 240.931L655.862 242.727C655.862 243.262 655.862 243.818 655.862 244.373C655.862 244.929 655.862 245.485 655.862 246.02L652.462 247.816C652.72 249.342 653.142 250.839 653.723 252.284H657.619C658.095 253.291 658.676 254.251 659.353 255.149L657.349 258.313C658.382 259.508 659.536 260.603 660.794 261.584L664.127 259.682C665.073 260.324 666.084 260.876 667.145 261.328V265.027C668.666 265.578 670.244 265.979 671.851 266.224L673.743 262.995C674.306 262.995 674.892 262.995 675.477 262.995C676.063 262.995 676.648 262.995 677.211 262.995L679.103 266.224C680.711 265.979 682.288 265.578 683.81 265.027V261.328C684.871 260.876 685.882 260.324 686.827 259.682L690.138 261.584C691.408 260.609 692.571 259.513 693.606 258.313L691.602 255.149C692.27 254.246 692.851 253.287 693.336 252.284H697.232C697.802 250.836 698.224 249.34 698.493 247.816L695.092 246.02C695.092 245.485 695.092 244.929 695.092 244.373ZM675.477 257.03C672.84 257.03 670.263 256.288 668.07 254.897C665.878 253.507 664.169 251.53 663.16 249.217C662.151 246.904 661.887 244.359 662.402 241.904C662.916 239.449 664.186 237.194 666.05 235.424C667.915 233.654 670.29 232.448 672.876 231.96C675.462 231.471 678.143 231.722 680.579 232.68C683.015 233.638 685.097 235.26 686.562 237.342C688.027 239.423 688.809 241.87 688.809 244.373C688.809 246.043 688.461 247.696 687.786 249.237C687.11 250.778 686.12 252.177 684.872 253.354C683.625 254.53 682.145 255.461 680.517 256.092C678.889 256.723 677.145 257.042 675.387 257.03H675.477Z" fill="#F0F0F0"/>
<path d="M669.464 290.062C669.464 289.229 669.464 288.416 669.352 287.604L674.419 284.91C674.054 282.645 673.435 280.423 672.572 278.282L666.784 278.389C666.042 276.896 665.168 275.466 664.172 274.113L667.167 269.388C665.631 267.584 663.895 265.942 661.988 264.492L657.011 267.314C655.589 266.369 654.082 265.547 652.507 264.855V259.339C650.23 258.509 647.867 257.907 645.458 257.544L642.643 262.375C640.914 262.204 639.17 262.204 637.441 262.375L634.626 257.544C632.217 257.907 629.854 258.509 627.577 259.339V264.855C626.002 265.547 624.495 266.369 623.073 267.314L618.074 264.492C616.179 265.948 614.451 267.589 612.917 269.388L615.912 274.113C614.916 275.466 614.042 276.896 613.299 278.389L607.489 278.282C606.617 280.445 605.983 282.687 605.598 284.974L610.687 287.668C610.687 288.48 610.575 289.293 610.575 290.127C610.575 290.96 610.575 291.773 610.687 292.585L605.598 295.279C605.983 297.566 606.617 299.808 607.489 301.971L613.299 301.864C614.037 303.359 614.911 304.79 615.912 306.14L612.917 310.865C614.451 312.664 616.179 314.305 618.074 315.761L623.073 312.939C624.49 313.891 625.998 314.714 627.577 315.398V320.914C629.854 321.744 632.217 322.346 634.626 322.71L637.441 317.878C639.17 318.049 640.914 318.049 642.643 317.878L645.458 322.71C647.867 322.346 650.23 321.744 652.507 320.914V315.398C654.086 314.714 655.594 313.891 657.011 312.939L661.988 315.761C663.895 314.311 665.631 312.669 667.167 310.865L664.127 306.076C665.128 304.726 666.002 303.295 666.739 301.8L672.527 301.907C673.41 299.748 674.044 297.504 674.419 295.215L669.352 292.521C669.419 291.709 669.464 290.896 669.464 290.062ZM640.188 301.052C637.899 301.052 635.661 300.407 633.757 299.2C631.854 297.992 630.37 296.276 629.494 294.268C628.618 292.26 628.389 290.05 628.835 287.919C629.282 285.787 630.385 283.829 632.003 282.292C633.622 280.755 635.685 279.708 637.93 279.284C640.176 278.86 642.503 279.078 644.618 279.91C646.733 280.741 648.541 282.15 649.813 283.957C651.085 285.764 651.764 287.889 651.764 290.062C651.764 291.513 651.461 292.949 650.874 294.288C650.287 295.627 649.426 296.842 648.342 297.863C647.257 298.885 645.97 299.693 644.556 300.24C643.141 300.787 641.626 301.063 640.098 301.052H640.188Z" fill="#F0F0F0"/>
<path d="M213.524 205.312H186.996C184.729 205.312 182.484 205.736 180.389 206.561C178.295 207.385 176.392 208.593 174.79 210.116C173.188 211.639 171.918 213.447 171.052 215.437C170.187 217.426 169.743 219.558 169.746 221.711V246.875C169.746 251.22 171.562 255.388 174.797 258.463C178.031 261.538 182.419 263.268 186.996 263.273H213.524C218.102 263.268 222.489 261.538 225.724 258.463C228.958 255.388 230.775 251.22 230.775 246.875V221.711C230.778 219.558 230.334 217.426 229.468 215.437C228.603 213.447 227.332 211.639 225.73 210.116C224.128 208.593 222.225 207.385 220.131 206.561C218.037 205.736 215.792 205.312 213.524 205.312ZM200.26 252.348C200.26 252.348 185.915 237.51 185.915 229.985C185.915 226.373 187.426 222.909 190.117 220.355C192.807 217.8 196.456 216.366 200.26 216.366C204.065 216.366 207.714 217.8 210.404 220.355C213.094 222.909 214.605 226.373 214.605 229.985C214.605 237.446 200.26 252.284 200.26 252.284V252.348Z" fill="#F0F0F0"/>
<path d="M200.26 223.72C198.963 223.72 197.695 224.086 196.617 224.77C195.539 225.455 194.699 226.428 194.204 227.566C193.708 228.704 193.58 229.956 193.834 231.164C194.089 232.371 194.715 233.48 195.634 234.349C196.553 235.218 197.723 235.809 198.995 236.047C200.268 236.284 201.587 236.158 202.784 235.684C203.981 235.21 205.003 234.409 205.72 233.383C206.437 232.357 206.818 231.152 206.813 229.921C206.813 229.105 206.644 228.297 206.314 227.543C205.985 226.789 205.501 226.105 204.893 225.529C204.284 224.953 203.561 224.497 202.766 224.186C201.971 223.876 201.12 223.718 200.26 223.72Z" fill="#F0F0F0"/>
<path d="M749.14 17.4461H721.148C719.055 17.4433 716.982 17.8322 715.048 18.5906C713.114 19.3489 711.356 20.4619 709.875 21.8658C708.394 23.2697 707.219 24.937 706.418 26.7723C705.616 28.6076 705.204 30.575 705.204 32.5618V59.1585C705.204 61.1453 705.616 63.1126 706.418 64.9479C707.219 66.7832 708.394 68.4505 709.875 69.8544C711.356 71.2583 713.114 72.3713 715.048 73.1297C716.982 73.8881 719.055 74.2769 721.148 74.2741H749.14C751.232 74.277 753.304 73.8879 755.237 73.1293C757.17 72.3706 758.926 71.2573 760.405 69.8531C761.884 68.4489 763.057 66.7815 763.856 64.9463C764.655 63.1111 765.065 61.1443 765.062 59.1585V32.4121C765.026 28.4274 763.332 24.6178 760.35 21.8141C757.367 19.0105 753.337 17.4403 749.14 17.4461ZM752.878 36.8805C752.145 37.7625 751.289 38.5464 750.334 39.2109C750.294 39.2253 750.261 39.2524 750.24 39.2876C750.22 39.3228 750.213 39.3638 750.221 39.4034C750.252 40.3971 750.192 41.3914 750.041 42.3752C749.809 44.4373 749.231 46.451 748.329 48.3402C747.402 50.2626 746.155 52.0312 744.636 53.5783C742.033 56.1836 738.655 57.9736 734.953 58.7095C733.65 58.983 732.323 59.1405 730.989 59.1799C727.018 59.2658 723.107 58.2557 719.729 56.2722H719.549C723.274 56.6339 727.007 55.6659 730.021 53.5569C728.543 53.5234 727.112 53.0578 725.923 52.2237C724.734 51.3896 723.845 50.2275 723.377 48.8961C724.379 49.0987 725.415 49.0987 726.417 48.8961C725.463 48.7054 724.56 48.3322 723.762 47.7992C722.964 47.2662 722.289 46.5846 721.778 45.796C721.073 44.7331 720.699 43.503 720.697 42.2469C721.649 42.7319 722.703 43.0094 723.783 43.0593C722.317 42.085 721.282 40.6306 720.878 38.9758C720.44 37.3332 720.69 35.5934 721.576 34.1225C723.383 36.1882 725.619 37.8774 728.146 39.0841C730.673 40.2908 733.435 40.9891 736.259 41.1351C736.249 40.8811 736.203 40.6295 736.124 40.3868C735.892 38.8563 736.235 37.2972 737.092 35.9825C737.613 35.1904 738.311 34.5159 739.135 34.0063C739.96 33.4966 740.892 33.1641 741.866 33.0321C742.973 32.8478 744.11 32.9208 745.181 33.2447C746.252 33.5687 747.224 34.1339 748.014 34.8922C748.063 34.9456 748.128 34.9842 748.2 35.0032C748.272 35.0222 748.348 35.0208 748.42 34.9991C749.85 34.7088 751.225 34.2112 752.496 33.5239C751.986 34.9476 750.997 36.1724 749.681 37.0088C751.034 36.8585 752.356 36.5125 753.599 35.9825L752.878 36.8805Z" fill="#F0F0F0"/>
<path d="M162.246 0H132.272C122.857 0 115.225 7.24613 115.225 16.1847V44.6414C115.225 53.58 122.857 60.8261 132.272 60.8261H162.246C171.662 60.8261 179.294 53.58 179.294 44.6414V16.1847C179.294 7.24613 171.662 0 162.246 0Z" fill="#F0F0F0"/>
<path d="M154.432 20.7386V29.2906C154.432 30.1329 154.257 30.967 153.918 31.7451C153.578 32.5233 153.08 33.2304 152.453 33.826C151.826 34.4216 151.081 34.8941 150.261 35.2164C149.442 35.5387 148.563 35.7046 147.676 35.7046H139.051L129.21 45.0477V35.7046C127.418 35.7046 125.699 35.0288 124.432 33.826C123.165 32.6231 122.454 30.9917 122.454 29.2906V20.7386C122.454 19.0375 123.165 17.4061 124.432 16.2032C125.699 15.0004 127.418 14.3246 129.21 14.3246H147.676C149.468 14.3246 151.186 15.0004 152.453 16.2032C153.72 17.4061 154.432 19.0375 154.432 20.7386Z" fill="white"/>
<path d="M172.065 33.6735V40.2585C172.065 41.5684 171.517 42.8246 170.541 43.7508C169.566 44.677 168.243 45.1973 166.863 45.1973V52.381L159.296 45.2401H152.675C151.296 45.2401 149.972 44.7197 148.997 43.7935C148.021 42.8673 147.473 41.6112 147.473 40.3013V33.7163C147.47 33.0659 147.603 32.4214 147.863 31.8197C148.123 31.218 148.506 30.6711 148.989 30.2102C149.472 29.7493 150.047 29.3836 150.679 29.1341C151.312 28.8845 151.99 28.7561 152.675 28.7561H166.863C168.239 28.7561 169.559 29.2735 170.533 30.1951C171.508 31.1166 172.059 32.3674 172.065 33.6735Z" fill="white"/>
<path d="M147.293 21.2731H130.583C130.38 21.2731 130.185 21.1965 130.042 21.0602C129.898 20.9239 129.818 20.739 129.818 20.5462C129.818 20.3534 129.898 20.1685 130.042 20.0322C130.185 19.8959 130.38 19.8193 130.583 19.8193H147.293C147.496 19.8193 147.691 19.8959 147.835 20.0322C147.978 20.1685 148.059 20.3534 148.059 20.5462C148.059 20.739 147.978 20.9239 147.835 21.0602C147.691 21.1965 147.496 21.2731 147.293 21.2731Z" fill="#EBEBEB"/>
<path d="M147.293 24.9718H130.583C130.38 24.9718 130.185 24.8953 130.042 24.7589C129.898 24.6226 129.818 24.4377 129.818 24.2449C129.818 24.0521 129.898 23.8672 130.042 23.7309C130.185 23.5946 130.38 23.518 130.583 23.518H147.293C147.496 23.518 147.691 23.5946 147.835 23.7309C147.978 23.8672 148.059 24.0521 148.059 24.2449C148.059 24.4377 147.978 24.6226 147.835 24.7589C147.691 24.8953 147.496 24.9718 147.293 24.9718Z" fill="#EBEBEB"/>
<path d="M142.631 28.6706H130.583C130.38 28.6706 130.185 28.594 130.042 28.4577C129.898 28.3213 129.818 28.1365 129.818 27.9437C129.818 27.7509 129.898 27.566 130.042 27.4297C130.185 27.2933 130.38 27.2167 130.583 27.2167H142.631C142.835 27.2167 143.029 27.2933 143.173 27.4297C143.316 27.566 143.397 27.7509 143.397 27.9437C143.397 28.1365 143.316 28.3213 143.173 28.4577C143.029 28.594 142.835 28.6706 142.631 28.6706Z" fill="#EBEBEB"/>
</g>
</svg>
