<svg width="632" height="632" viewBox="0 0 632 632" fill="none" xmlns="http://www.w3.org/2000/svg">
<path d="M632 460.354H0V460.67H632V460.354Z" fill="#EBEBEB"/>
<path d="M543.153 468.961H419.787V469.277H543.153V468.961Z" fill="#EBEBEB"/>
<path d="M424.287 476.267H365.296V476.583H424.287V476.267Z" fill="#EBEBEB"/>
<path d="M568.674 480.691H544.417V481.007H568.674V480.691Z" fill="#EBEBEB"/>
<path d="M276.816 476.419H159.858V476.735H276.816V476.419Z" fill="#EBEBEB"/>
<path d="M148.608 476.419H123.455V476.735H148.608V476.419Z" fill="#EBEBEB"/>
<path d="M114.582 471.085H73.0466V471.401H114.582V471.085Z" fill="#EBEBEB"/>
<path d="M299.568 403.979H55.5022C53.5902 403.976 51.7577 403.214 50.4069 401.861C49.0561 400.508 48.2974 398.674 48.2974 396.762V53.6742C48.3141 51.7732 49.0801 49.9555 50.4291 48.616C51.7781 47.2764 53.6011 46.5232 55.5022 46.52H299.568C301.482 46.52 303.318 47.2804 304.671 48.6339C306.025 49.9875 306.785 51.8232 306.785 53.7374V396.762C306.785 398.676 306.025 400.512 304.671 401.865C303.318 403.219 301.482 403.979 299.568 403.979ZM55.5022 46.7728C53.674 46.7761 51.9219 47.5047 50.6303 48.7986C49.3388 50.0925 48.6134 51.846 48.6134 53.6742V396.762C48.6134 398.59 49.3388 400.343 50.6303 401.637C51.9219 402.931 53.674 403.66 55.5022 403.663H299.568C301.397 403.66 303.151 402.932 304.444 401.638C305.738 400.345 306.466 398.591 306.469 396.762V53.6742C306.466 51.8449 305.738 50.0914 304.444 48.7979C303.151 47.5043 301.397 46.7761 299.568 46.7728H55.5022Z" fill="#EBEBEB"/>
<path d="M572.984 403.979H328.905C326.992 403.976 325.158 403.214 323.806 401.862C322.453 400.509 321.691 398.675 321.688 396.762V53.6742C321.708 51.7721 322.477 49.9544 323.828 48.6152C325.179 47.276 327.003 46.5232 328.905 46.52H572.984C574.883 46.5266 576.703 47.2812 578.049 48.6204C579.395 49.9596 580.159 51.7754 580.176 53.6742V396.762C580.176 398.672 579.419 400.504 578.071 401.856C576.723 403.209 574.894 403.973 572.984 403.979ZM328.905 46.7728C327.076 46.7761 325.323 47.5043 324.029 48.7979C322.736 50.0914 322.007 51.8449 322.004 53.6742V396.762C322.007 398.591 322.736 400.345 324.029 401.638C325.323 402.932 327.076 403.66 328.905 403.663H572.984C574.813 403.66 576.567 402.932 577.86 401.638C579.154 400.345 579.882 398.591 579.885 396.762V53.6742C579.882 51.8449 579.154 50.0914 577.86 48.7979C576.567 47.5043 574.813 46.7761 572.984 46.7728H328.905Z" fill="#EBEBEB"/>
<path d="M118.386 306.55H100.968V460.354H118.386V306.55Z" fill="#EBEBEB"/>
<path d="M118.374 460.354H286.005V306.55H118.374L118.374 460.354Z" fill="#F5F5F5"/>
<path d="M124.555 454.388H279.824V312.516H124.555L124.555 454.388Z" fill="#EBEBEB"/>
<path d="M127.083 330.857H277.296V315.31H127.083V330.857Z" fill="#F5F5F5"/>
<path d="M127.083 375.173H277.296V332.753H127.083V375.173Z" fill="#F5F5F5"/>
<path d="M127.083 451.923H277.296V377.069H127.083V451.923Z" fill="#F5F5F5"/>
<path d="M245.886 383.073H158.506C158.17 383.073 157.849 382.939 157.612 382.702C157.375 382.465 157.242 382.144 157.242 381.809C157.242 381.473 157.375 381.152 157.612 380.915C157.849 380.678 158.17 380.545 158.506 380.545H245.886C246.221 380.545 246.543 380.678 246.78 380.915C247.017 381.152 247.15 381.473 247.15 381.809C247.15 382.144 247.017 382.465 246.78 382.702C246.543 382.939 246.221 383.073 245.886 383.073Z" fill="#FAFAFA"/>
<path d="M245.886 338.871H158.506C158.17 338.871 157.849 338.737 157.612 338.5C157.375 338.263 157.242 337.942 157.242 337.607C157.242 337.271 157.375 336.95 157.612 336.713C157.849 336.476 158.17 336.343 158.506 336.343H245.886C246.221 336.343 246.543 336.476 246.78 336.713C247.017 336.95 247.15 337.271 247.15 337.607C247.15 337.942 247.017 338.263 246.78 338.5C246.543 338.737 246.221 338.871 245.886 338.871Z" fill="#FAFAFA"/>
<path d="M245.886 321.427H158.506C158.17 321.427 157.849 321.294 157.612 321.057C157.375 320.82 157.242 320.499 157.242 320.163C157.242 319.828 157.375 319.507 157.612 319.27C157.849 319.033 158.17 318.899 158.506 318.899H245.886C246.221 318.899 246.543 319.033 246.78 319.27C247.017 319.507 247.15 319.828 247.15 320.163C247.15 320.499 247.017 320.82 246.78 321.057C246.543 321.294 246.221 321.427 245.886 321.427Z" fill="#FAFAFA"/>
<path d="M92.1456 265.622H303.739V197.353L92.1456 197.353V265.622Z" fill="#F0F0F0"/>
<path d="M297.76 259.63V203.307H98.1117V259.63H297.76Z" fill="#E6E6E6"/>
<path d="M297.76 259.63V203.307H269.08V259.63H297.76Z" fill="#E0E0E0"/>
<path d="M92.1329 265.609V197.34H77.2683V265.609H92.1329Z" fill="#E6E6E6"/>
<path d="M261.42 259.643H273.896V207.857H261.42V259.643Z" fill="#F0F0F0"/>
<path d="M261.42 207.857H228.076V259.643H261.42V207.857Z" fill="#E0E0E0"/>
<path d="M250.348 259.643H257.376V213.785H250.348V259.643Z" fill="#FAFAFA"/>
<path d="M250.348 213.772H231.565V259.63H250.348V213.772Z" fill="#EBEBEB"/>
<path d="M228.974 259.643H239.376L245.38 216.427H234.965L228.974 259.643Z" fill="#FAFAFA"/>
<path d="M228.974 259.643H201.14L207.144 216.427H234.965L228.974 259.643Z" fill="#EBEBEB"/>
<path d="M219.38 259.643V247.167H167.594V259.643H219.38Z" fill="#E6E6E6"/>
<path d="M167.594 259.643V247.167H148.469V259.643H167.594Z" fill="#E0E0E0"/>
<path d="M165.913 258.227V248.596H148.469V258.227H165.913Z" fill="#F0F0F0"/>
<path d="M216.195 247.167V237.447H164.408V247.167H216.195Z" fill="#F0F0F0"/>
<path d="M164.408 247.167V237.447H145.284V247.167H164.408Z" fill="#E6E6E6"/>
<path d="M162.727 246.068V238.56H145.284V246.068H162.727Z" fill="#F0F0F0"/>
<path d="M132.53 259.643H142.63V217.678H132.53V259.643Z" fill="#F0F0F0"/>
<path d="M132.518 217.678H105.506V259.643H132.518V217.678Z" fill="#E0E0E0"/>
<path d="M110.17 259.643H119.878V222.481H110.17V259.643Z" fill="#FAFAFA"/>
<path d="M110.183 222.481H98.1117V259.643H110.183V222.481Z" fill="#EBEBEB"/>
<path d="M92.1456 179.569L303.739 179.569V111.3L92.1456 111.3V179.569Z" fill="#F0F0F0"/>
<path d="M297.76 173.603V117.279L98.1117 117.279V173.603H297.76Z" fill="#E6E6E6"/>
<path d="M297.773 173.603V117.279H269.093V173.603H297.773Z" fill="#E0E0E0"/>
<path d="M92.1456 179.581V111.313H77.281V179.581H92.1456Z" fill="#E6E6E6"/>
<path d="M196.527 173.615H207.385V140.688H196.527V173.615Z" fill="#F0F0F0"/>
<path d="M196.539 140.675H180.423V173.603H196.539V140.675Z" fill="#E0E0E0"/>
<path d="M184.62 173.615H190.738V133.698H184.62V173.615Z" fill="#FAFAFA"/>
<path d="M184.607 133.685H168.264V173.603H184.607V133.685Z" fill="#EBEBEB"/>
<path d="M274.743 173.603H283.806L289.026 135.986H279.963L274.743 173.603Z" fill="#F0F0F0"/>
<path d="M274.743 173.603H250.525L255.745 135.986H279.963L274.743 173.603Z" fill="#E0E0E0"/>
<path d="M172.308 173.603V161.911H123.758V173.603H172.308Z" fill="#F5F5F5"/>
<path d="M123.758 173.603V161.911H105.835V173.603H123.758Z" fill="#E0E0E0"/>
<path d="M122.191 172.275V163.25H105.835V172.275H122.191Z" fill="#F0F0F0"/>
<path d="M165.559 152.797V143.342H126.312V152.797H165.559Z" fill="#FAFAFA"/>
<path d="M126.299 152.797V143.342H111.801V152.797H126.299Z" fill="#E0E0E0"/>
<path d="M125.035 151.723V144.417H111.813V151.723H125.035Z" fill="#F5F5F5"/>
<path d="M267.462 173.565V164.11H228.215V173.565H267.462Z" fill="#FAFAFA"/>
<path d="M228.203 173.565V164.11H213.704V173.565H228.203Z" fill="#E0E0E0"/>
<path d="M226.939 172.49V165.184H213.717V172.49H226.939Z" fill="#F5F5F5"/>
<path d="M169.325 161.911V152.797H120.775V161.911H169.325Z" fill="#F0F0F0"/>
<path d="M120.775 161.911V152.797H102.852V161.911H120.775Z" fill="#E6E6E6"/>
<path d="M119.195 160.874V153.834H102.839V160.874H119.195Z" fill="#F0F0F0"/>
<path d="M387.467 126.291H535.822L542.18 460.354H393.837L387.467 126.291Z" fill="#F5F5F5"/>
<path d="M536.644 435.453L531.221 150.459C531.125 145.357 529.031 140.496 525.388 136.922C521.746 133.348 516.846 131.346 511.743 131.347H412.481C409.892 131.347 407.329 131.862 404.941 132.864C402.554 133.866 400.39 135.333 398.577 137.181C396.763 139.029 395.336 141.22 394.379 143.625C393.422 146.031 392.954 148.603 393.003 151.192L398.425 436.186C398.521 441.288 400.616 446.149 404.258 449.723C407.901 453.297 412.801 455.298 417.904 455.298H517.178C519.767 455.298 522.329 454.782 524.716 453.78C527.103 452.779 529.266 451.311 531.078 449.463C532.891 447.615 534.317 445.424 535.272 443.018C536.228 440.613 536.694 438.041 536.644 435.453Z" fill="#F0F0F0"/>
<path d="M387.467 126.291H384.635L390.993 460.354H393.837L387.467 126.291Z" fill="#E6E6E6"/>
<path d="M466.707 131.347H489.029L507.357 455.298H485.035L466.707 131.347Z" fill="#FAFAFA"/>
<path d="M449.162 131.347H460.324L478.652 455.298H467.49L449.162 131.347Z" fill="#FAFAFA"/>
<path d="M316 517.436C451.352 517.436 561.077 511.03 561.077 503.127C561.077 495.225 451.352 488.819 316 488.819C180.648 488.819 70.923 495.225 70.923 503.127C70.923 511.03 180.648 517.436 316 517.436Z" fill="#F5F5F5"/>
<path d="M230.44 376.727H339.384C335.592 368.461 328.678 363.392 321.22 363.392H236.532L230.44 376.727Z" fill="url(#paint0_linear_1_1500)"/>
<path d="M212.087 376.727H255.72C251.928 368.461 245.014 363.392 237.544 363.392H222.097C214.64 363.392 210.936 367.702 212.087 376.727Z" fill="url(#paint1_linear_1_1500)"/>
<path opacity="0.5" d="M212.087 376.727H255.72C251.928 368.461 245.014 363.392 237.544 363.392H222.097C214.64 363.392 210.936 367.702 212.087 376.727Z" fill="#263238"/>
<path d="M288.938 492.08H279.483V376.727H269.106V492.08H259.651L249.463 501.509H269.106H279.483H299.126L288.938 492.08Z" fill="url(#paint2_linear_1_1500)"/>
<path opacity="0.7" d="M288.938 492.08H279.483V376.727H269.106V492.08H259.651L249.463 501.509H269.106H279.483H299.126L288.938 492.08Z" fill="white"/>
<path opacity="0.5" d="M279.483 376.727H269.106V380.595H279.483V376.727Z" fill="url(#paint3_linear_1_1500)"/>
<path d="M347.233 488.857L358.572 485.988L355.879 458.786L344.541 461.656L347.233 488.857Z" fill="#B55B52"/>
<path d="M359.064 480.969L346.045 482.6C345.936 482.609 345.829 482.641 345.731 482.692C345.634 482.743 345.547 482.812 345.476 482.897C345.406 482.982 345.353 483.079 345.32 483.185C345.288 483.29 345.276 483.4 345.287 483.51L345.982 493.887C346.052 494.429 346.332 494.922 346.763 495.258C347.194 495.594 347.74 495.747 348.283 495.682C352.795 495.025 354.603 494.532 360.316 493.382C365.858 492.326 371.342 490.988 376.748 489.375C381.286 487.846 379.706 483.257 377.595 483.51C372.602 484.104 364.74 483.51 361.163 481.374C360.526 481.015 359.789 480.873 359.064 480.969Z" fill="#263238"/>
<path opacity="0.2" d="M344.541 461.668L355.892 458.799L357.181 471.894L345.793 474.371L344.541 461.668Z" fill="black"/>
<path d="M270.496 325.283C270.496 325.283 354.514 322.464 354.792 355.972C355.184 404.118 360.417 463.893 360.417 463.893L339.258 467.028C339.258 467.028 324.848 409.655 325.113 372.063C301.489 365.389 240.135 369.737 232.905 350.158C227.002 334.131 230.086 325.283 230.086 325.283H270.496Z" fill="#263238"/>
<path opacity="0.3" d="M304.94 335.609C304.94 335.609 302.412 354.772 311.146 369.548C315.863 370.035 320.537 370.88 325.126 372.076C325.119 375.728 325.313 379.378 325.707 383.009C339.763 362.04 328.261 338.251 304.94 335.609Z" fill="black"/>
<path d="M337.614 472.589L362.123 467.975L362.528 458.47L335.327 463.261L337.614 472.589Z" fill="url(#paint4_linear_1_1500)"/>
<path d="M363.425 482.461C362.383 482.575 361.332 482.575 360.291 482.461C360.237 482.455 360.186 482.434 360.144 482.4C360.101 482.367 360.069 482.322 360.05 482.271C360.036 482.222 360.036 482.171 360.049 482.122C360.063 482.073 360.089 482.028 360.126 481.993C360.468 481.69 363.463 479.023 364.942 479.389C365.111 479.435 365.265 479.521 365.393 479.64C365.521 479.759 365.618 479.907 365.675 480.072C365.786 480.316 365.83 480.584 365.804 480.851C365.777 481.117 365.68 481.372 365.523 481.589C364.954 482.127 364.208 482.437 363.425 482.461ZM360.973 481.955C363.109 482.107 364.626 481.842 365.094 481.235C365.19 481.091 365.247 480.924 365.258 480.75C365.269 480.577 365.234 480.404 365.157 480.249C365.136 480.166 365.094 480.091 365.034 480.031C364.974 479.971 364.898 479.928 364.816 479.908C364.032 479.705 362.212 480.932 360.973 481.955Z" fill="url(#paint5_linear_1_1500)"/>
<path d="M360.354 482.448H360.24C360.198 482.432 360.16 482.404 360.131 482.369C360.102 482.333 360.083 482.291 360.076 482.246C360.076 482.107 359.355 478.808 360.379 477.531C360.51 477.366 360.678 477.232 360.868 477.14C361.059 477.048 361.267 477 361.479 477C361.709 476.982 361.94 477.039 362.134 477.165C362.328 477.291 362.476 477.477 362.553 477.696C362.983 478.96 361.567 481.563 360.505 482.41L360.354 482.448ZM361.327 477.544C361.218 477.557 361.113 477.592 361.017 477.647C360.922 477.701 360.838 477.773 360.771 477.86C360.164 478.618 360.316 480.54 360.493 481.652C361.39 480.666 362.3 478.682 362.022 477.86C361.959 477.708 361.845 477.531 361.453 477.531L361.327 477.544Z" fill="url(#paint6_linear_1_1500)"/>
<path d="M298.203 491.359L309.794 489.881L311.69 462.376L300.099 463.842L298.203 491.359Z" fill="#B55B52"/>
<path d="M310.059 488.288L296.939 487.871C296.718 487.857 296.501 487.93 296.333 488.074C296.165 488.218 296.061 488.422 296.041 488.642L295.081 499.007C295.064 499.552 295.262 500.083 295.634 500.483C296.006 500.883 296.52 501.12 297.065 501.143C301.628 501.206 303.815 501.004 309.592 501.143C313.143 501.257 320.121 501.775 324.987 501.143C329.853 500.511 329.108 495.733 326.997 495.556C321.941 495.152 315.254 491.688 312.044 488.996C311.478 488.548 310.781 488.299 310.059 488.288Z" fill="#263238"/>
<path d="M314.129 490.449C313.081 490.396 312.042 490.222 311.032 489.931C310.983 489.917 310.938 489.889 310.902 489.851C310.867 489.814 310.842 489.767 310.83 489.716C310.824 489.665 310.833 489.612 310.855 489.566C310.878 489.519 310.913 489.479 310.957 489.451C311.336 489.198 314.749 487.049 316.126 487.643C316.286 487.715 316.425 487.825 316.531 487.965C316.637 488.104 316.706 488.267 316.733 488.44C316.804 488.697 316.805 488.968 316.736 489.226C316.667 489.484 316.531 489.718 316.341 489.906C315.696 490.354 314.908 490.547 314.129 490.449ZM311.791 489.565C313.864 490.045 315.406 490.032 315.975 489.501C316.094 489.376 316.177 489.22 316.215 489.051C316.252 488.882 316.244 488.705 316.19 488.541C316.182 488.457 316.152 488.376 316.103 488.308C316.054 488.239 315.988 488.184 315.912 488.149C315.153 487.82 313.181 488.743 311.791 489.565Z" fill="url(#paint7_linear_1_1500)"/>
<path d="M311.096 489.944C311.054 489.955 311.011 489.955 310.969 489.944C310.929 489.924 310.895 489.893 310.871 489.855C310.846 489.818 310.832 489.774 310.83 489.729C310.83 489.577 310.666 486.215 311.879 485.115C312.035 484.974 312.22 484.87 312.422 484.811C312.623 484.752 312.835 484.739 313.042 484.774C313.277 484.786 313.5 484.877 313.675 485.034C313.85 485.19 313.965 485.402 314.003 485.634C314.243 486.898 312.423 489.299 311.235 489.944C311.189 489.957 311.141 489.957 311.096 489.944ZM312.84 485.267C312.732 485.261 312.623 485.277 312.521 485.314C312.419 485.351 312.325 485.408 312.246 485.482C311.525 486.139 311.361 488.01 311.361 489.173C312.41 488.339 313.624 486.531 313.472 485.684C313.472 485.532 313.358 485.33 312.966 485.28L312.84 485.267Z" fill="url(#paint8_linear_1_1500)"/>
<path opacity="0.2" d="M300.099 463.855L311.69 462.376L310.603 478.113L299.05 479.01L300.099 463.855Z" fill="black"/>
<path d="M241.917 325.283C241.917 325.283 325.809 333.22 322.813 358.475C318.402 394.891 316.228 473.385 316.228 473.385L294.841 474.232C294.841 474.232 285.778 403.448 290.467 366.135C268.764 366.135 215.613 367.69 210.759 354.607C206.487 343.054 208.017 325.283 208.017 325.283H241.917Z" fill="#263238"/>
<path d="M292.426 475.547L318.098 474.27L319.021 463.109L290.872 465.043L292.426 475.547Z" fill="url(#paint9_linear_1_1500)"/>
<path d="M278.181 249.809L278.902 255.624C279.154 257.595 279.432 259.567 279.736 261.526C280.368 265.457 281 269.376 281.796 273.218C282.592 277.061 283.452 280.802 284.489 284.468C285.433 287.889 286.703 291.211 288.281 294.39C288.879 295.591 289.613 296.719 290.467 297.753C290.594 297.904 290.859 298.157 291.125 298.41C291.39 298.663 291.668 298.916 291.946 299.168C292.528 299.661 293.21 300.167 293.855 300.66C296.861 302.745 300.051 304.551 303.385 306.057C310.609 309.288 318.011 312.103 325.556 314.488L324.191 323.159C319.862 323.014 315.547 322.592 311.273 321.895C309.149 321.566 307.013 321.162 304.953 320.631C302.892 320.1 300.68 319.62 298.557 318.975C294.08 317.716 289.756 315.965 285.664 313.755C284.556 313.144 283.481 312.478 282.441 311.758C281.91 311.379 281.379 311.012 280.848 310.57C280.272 310.131 279.719 309.663 279.192 309.167C277.177 307.217 275.426 305.011 273.985 302.606C271.59 298.522 269.633 294.196 268.145 289.701C266.726 285.519 265.523 281.266 264.543 276.96C263.582 272.725 262.735 268.491 262.116 264.244C261.787 262.12 261.496 259.997 261.218 257.924C260.94 255.851 260.738 253.715 260.561 251.402L278.181 249.809Z" fill="#B55B52"/>
<path d="M260.46 241.366C269.042 233.086 279.609 237.978 283.831 253.5C286.222 261.821 287.855 270.342 288.71 278.957L261.547 284.569C256.592 269.755 251.688 249.86 260.46 241.366Z" fill="url(#paint10_linear_1_1500)"/>
<path opacity="0.3" d="M269.232 258.316C267.285 256.572 261.774 264.396 258.4 274.091C259.36 277.706 260.447 281.27 261.547 284.582L277.89 281.194C276.576 271.512 273.568 262.247 269.232 258.316Z" fill="black"/>
<path d="M323.887 312.276L330.359 312.68L325.189 324.562C325.189 324.562 314.028 324.297 314.268 318.811L316.278 316.182C317.202 315.034 318.357 314.093 319.668 313.42C320.979 312.747 322.416 312.358 323.887 312.276Z" fill="#B55B52"/>
<path d="M337.412 313.641L331.825 324.562H325.189L330.359 312.68L337.412 313.641Z" fill="#B55B52"/>
<path d="M261.471 233.061L248.452 229.345L231.717 228.536C229.177 228.419 226.669 229.138 224.578 230.584C222.486 232.029 220.927 234.12 220.138 236.537C216.94 246.27 214.008 260.364 211.872 272.523C209.47 286.149 208.219 306.651 207.966 325.27H270.496C271.924 286.427 276.816 263.46 279.053 250.694C279.483 248.205 279.087 245.643 277.926 243.4C276.764 241.156 274.901 239.354 272.62 238.269L261.471 233.061Z" fill="url(#paint11_linear_1_1500)"/>
<path opacity="0.3" d="M218.141 243.287C215.727 252.135 213.553 262.967 211.821 272.536C210.267 282.303 209.242 292.147 208.75 302.025C219.051 301.001 230.427 289.145 234.03 273.18C237.632 257.608 229.277 241.404 218.141 243.287Z" fill="black"/>
<path d="M253.647 208.198L258.703 215.921L265.592 226.45C264.701 227.349 263.981 228.403 263.468 229.56C262.204 232.088 261.168 233.996 266.489 237.624C267.064 237.989 267.521 238.513 267.803 239.132C268.086 239.751 268.183 240.44 268.082 241.113C267.778 242.756 266.135 244.349 260.384 243.337C254.851 242.274 249.803 239.47 245.974 235.336C244.053 233.428 244.496 231.987 246.341 230.002C251.536 224.39 253.129 215.428 253.647 208.198Z" fill="#B55B52"/>
<path opacity="0.2" d="M263.898 223.859L259.676 216.351L259.385 216.97C259.012 217.907 258.707 218.871 258.475 219.852C257.704 223.177 260.296 227.942 263.14 230.204L263.468 229.56C263.972 228.478 264.627 227.473 265.415 226.577C265.467 226.523 265.527 226.476 265.592 226.438L263.898 223.859Z" fill="black"/>
<path d="M261.964 253.588C261.882 253.58 261.805 253.543 261.747 253.485C261.688 253.427 261.65 253.351 261.64 253.27C261.63 253.188 261.647 253.105 261.69 253.034C261.733 252.964 261.798 252.909 261.875 252.881L262.773 252.666C267.349 251.667 278.067 249.329 277.094 208.198C277.094 208.103 277.131 208.012 277.197 207.943C277.263 207.875 277.353 207.835 277.448 207.832C277.543 207.832 277.634 207.868 277.703 207.935C277.771 208.001 277.811 208.091 277.815 208.186C278.8 249.898 267.703 252.337 262.925 253.374C262.609 253.374 262.318 253.5 262.065 253.576L261.964 253.588Z" fill="#263238"/>
<path d="M287.649 196.746C285.803 191.235 279.18 194.901 279.18 194.901C279.18 194.901 279.091 206.441 282.643 209.399C286.195 212.357 289.456 202.308 287.649 196.746Z" fill="#263238"/>
<path d="M255.429 194.522C253.394 205.974 251.637 212.546 255.872 219.89C257.235 222.275 259.221 224.245 261.617 225.589C264.013 226.933 266.73 227.602 269.476 227.522C272.222 227.443 274.895 226.62 277.21 225.14C279.524 223.66 281.394 221.579 282.618 219.119C287.459 209.677 289.962 192.575 280.09 184.991C278.001 183.319 275.509 182.224 272.865 181.816C270.22 181.408 267.515 181.701 265.019 182.666C262.523 183.63 260.324 185.233 258.641 187.313C256.958 189.394 255.851 191.879 255.429 194.522Z" fill="#B55B52"/>
<path d="M253.268 201.259C250.183 206.163 257.881 207.958 257.881 207.958C257.881 207.958 267.096 201.019 267.285 196.405C267.475 191.792 255.72 197.366 253.268 201.259Z" fill="#263238"/>
<path d="M250.272 203.104C248.755 201.84 247.087 197.024 248.363 192.79C249.64 188.556 253.71 183.942 257.376 185.446C258.741 181.54 277.499 176.737 283.768 185.446C291.074 195.621 287.244 200.854 281.164 196.911L270.041 193.308L250.272 203.104Z" fill="#263238"/>
<path d="M283.604 195.988C280.633 199.502 269.371 198.706 269.371 198.706L273.062 194.661C270.605 196.48 267.56 197.323 264.517 197.024C258.994 196.708 261.989 191.033 261.989 191.033C261.989 191.033 289.191 189.352 283.604 195.988Z" fill="#263238"/>
<path d="M249.261 202.814C249.15 205.341 249.973 207.82 251.574 209.778C253.672 212.306 256.908 210.284 257.666 207.174C258.336 204.381 257.464 200.045 254.709 198.706C251.953 197.366 249.4 199.679 249.261 202.814Z" fill="#B55B52"/>
<path d="M248.161 195.546C247.875 193.651 247.991 191.716 248.503 189.869C249.015 188.022 249.91 186.304 251.131 184.827C250.095 185.067 246.847 183.158 252.825 179.164C258.804 175.17 271.216 174.108 277.397 177.154C289.507 183.095 286.157 190.123 286.157 190.123L248.161 195.546Z" fill="url(#paint12_linear_1_1500)"/>
<path opacity="0.3" d="M248.161 195.546C247.875 193.651 247.991 191.716 248.503 189.869C249.015 188.022 249.91 186.304 251.131 184.827C250.095 185.067 246.847 183.158 252.825 179.164C258.804 175.17 271.216 174.108 277.397 177.154C289.507 183.095 286.157 190.123 286.157 190.123L248.161 195.546Z" fill="black"/>
<path d="M248.401 202.75C250.499 202.826 252.535 196.494 270.319 193.296C277.499 192.032 285.019 194.307 287.118 196.38C289.216 198.453 288.23 191.64 287.471 189.2C286.713 186.761 275.603 184.814 268.385 185.686C255.859 187.191 248.338 193.574 247.302 195.179C246.265 196.784 246.48 202.7 248.401 202.75Z" fill="url(#paint13_linear_1_1500)"/>
<path d="M254.949 204.52C255.189 205.024 255.227 205.601 255.055 206.132C254.884 206.663 254.515 207.108 254.026 207.377C253.103 207.667 252.016 206.884 251.599 205.607C251.359 205.103 251.321 204.526 251.493 203.995C251.664 203.464 252.033 203.019 252.522 202.75C253.445 202.46 254.532 203.256 254.949 204.52Z" fill="#263238"/>
<path d="M256.44 324.019C254.266 324.019 252.825 323.437 252.029 322.236C250.082 319.329 252.572 313.325 255.214 306.967C257.742 301.026 260.27 294.871 259.562 290.649C258.298 282.597 259.461 272.435 260.599 262.613C260.978 259.378 261.332 256.293 261.597 253.361C256.706 248.305 251.776 241.821 254.367 228.473C256.086 219.625 255.707 212.294 253.242 206.606C253.222 206.564 253.21 206.518 253.207 206.471C253.205 206.424 253.212 206.377 253.229 206.333C253.246 206.289 253.271 206.249 253.304 206.216C253.337 206.182 253.376 206.156 253.419 206.138C253.507 206.099 253.606 206.096 253.695 206.129C253.785 206.162 253.858 206.229 253.9 206.315C256.428 212.155 256.819 219.65 255.075 228.612C252.547 241.72 257.426 248.065 262.229 252.969C262.296 253.051 262.327 253.155 262.318 253.26C262.052 256.281 261.699 259.403 261.307 262.702C260.182 272.473 259.006 282.585 260.27 290.51C260.978 294.934 258.387 301.178 255.871 307.22C253.356 313.262 250.891 319.228 252.623 321.819C253.28 322.805 254.532 323.285 256.415 323.285C256.509 323.285 256.599 323.323 256.665 323.389C256.732 323.455 256.769 323.545 256.769 323.639C256.769 323.733 256.732 323.823 256.665 323.89C256.599 323.956 256.509 323.993 256.415 323.993L256.44 324.019Z" fill="#263238"/>
<path d="M272.885 205.114C272.594 206.012 272.885 206.909 273.403 207.124C273.921 207.339 274.667 206.783 274.971 205.86C275.274 204.937 275.046 204.065 274.465 203.85C273.884 203.635 273.176 204.217 272.885 205.114Z" fill="#263238"/>
<path d="M284.991 209.472C285.261 208.569 285.004 207.694 284.415 207.518C283.827 207.341 283.13 207.93 282.86 208.833C282.589 209.735 282.847 210.61 283.435 210.787C284.023 210.963 284.72 210.374 284.991 209.472Z" fill="#263238"/>
<path d="M279.458 208.312C279.417 210.984 279.731 213.649 280.393 216.237C278.598 216.895 276.601 215.34 276.601 215.34L279.458 208.312Z" fill="#A02724"/>
<path d="M274.098 220.257C273.063 219.91 272.107 219.359 271.289 218.636C270.47 217.913 269.805 217.033 269.333 216.048C269.308 215.981 269.31 215.906 269.338 215.84C269.366 215.774 269.419 215.722 269.485 215.694C269.519 215.679 269.555 215.672 269.592 215.672C269.629 215.671 269.666 215.679 269.7 215.693C269.734 215.707 269.765 215.728 269.791 215.754C269.817 215.78 269.838 215.811 269.851 215.845C270.376 216.909 271.137 217.839 272.077 218.562C273.017 219.285 274.111 219.783 275.274 220.017C275.346 220.032 275.409 220.075 275.449 220.137C275.49 220.198 275.504 220.273 275.489 220.345C275.474 220.417 275.43 220.48 275.369 220.521C275.307 220.561 275.232 220.575 275.16 220.56C274.801 220.48 274.446 220.379 274.098 220.257Z" fill="#263238"/>
<path d="M271.962 201.246C271.88 201.201 271.811 201.136 271.76 201.057C271.721 200.996 271.694 200.927 271.682 200.856C271.67 200.784 271.672 200.711 271.688 200.64C271.705 200.569 271.735 200.503 271.778 200.444C271.821 200.385 271.875 200.336 271.937 200.298C272.659 199.812 273.49 199.511 274.356 199.42C275.222 199.33 276.097 199.453 276.905 199.78C276.977 199.807 277.042 199.849 277.097 199.903C277.153 199.957 277.196 200.022 277.224 200.094C277.253 200.165 277.267 200.242 277.264 200.319C277.261 200.396 277.243 200.472 277.209 200.541C277.176 200.611 277.128 200.673 277.07 200.723C277.011 200.773 276.943 200.81 276.869 200.833C276.795 200.855 276.717 200.862 276.641 200.852C276.564 200.843 276.49 200.818 276.424 200.779C275.787 200.534 275.101 200.447 274.424 200.524C273.746 200.601 273.097 200.84 272.531 201.221C272.447 201.275 272.35 201.305 272.25 201.31C272.15 201.314 272.051 201.292 271.962 201.246Z" fill="#263238"/>
<path d="M284.868 203.003C284.843 202.912 284.843 202.816 284.868 202.725C284.924 202.59 285.031 202.482 285.166 202.425C285.3 202.369 285.452 202.367 285.588 202.422C286.4 202.738 287.121 203.249 287.687 203.911C288.254 204.572 288.649 205.363 288.837 206.214C288.839 206.348 288.794 206.478 288.708 206.581C288.622 206.684 288.502 206.753 288.37 206.774C288.238 206.796 288.102 206.769 287.988 206.698C287.874 206.628 287.789 206.519 287.75 206.391C287.588 205.725 287.268 205.109 286.817 204.594C286.366 204.079 285.797 203.681 285.158 203.433C285.076 203.393 285.006 203.333 284.955 203.257C284.904 203.182 284.874 203.094 284.868 203.003Z" fill="#263238"/>
<path d="M237.632 245.891C236.583 247.787 235.433 249.948 234.346 251.996C233.259 254.044 232.184 256.18 231.148 258.316C229.062 262.525 227.103 266.759 225.321 270.956C223.577 275.065 222.116 279.288 220.947 283.596C220.449 285.488 220.094 287.414 219.885 289.36C219.671 291.041 219.974 292.861 219.885 292.469C220.479 293.487 221.301 294.352 222.287 294.997C223.87 296.174 225.563 297.194 227.343 298.043C231.429 300.003 235.654 301.659 239.983 302.998C244.356 304.376 249.008 305.64 253.571 306.904C258.134 308.168 262.95 309.154 267.551 310.165L266.691 318.899C256.595 318.738 246.532 317.684 236.621 315.752C231.454 314.76 226.381 313.335 221.453 311.492C218.727 310.462 216.106 309.171 213.629 307.637C210.42 305.739 207.739 303.066 205.83 299.864C205.252 298.808 204.79 297.694 204.452 296.539L204.212 295.667L204.073 294.984C203.959 294.517 203.896 294.087 203.82 293.632C203.582 291.979 203.477 290.309 203.504 288.639C203.57 285.703 203.904 282.78 204.503 279.905C205.58 274.671 207.085 269.535 209.002 264.547C210.81 259.694 212.87 255.017 215.082 250.441C216.195 248.149 217.345 245.887 218.533 243.653C219.721 241.378 220.922 239.255 222.325 236.916L237.632 245.891Z" fill="#B55B52"/>
<path d="M228.013 228.751C239.793 226.956 245.583 237.068 240.046 252.16C237.173 260.326 233.568 268.216 229.277 275.734L203.883 264.598C208.434 249.657 215.929 230.584 228.013 228.751Z" fill="url(#paint14_linear_1_1500)"/>
<path d="M268.575 310.266L275.628 312.68L266.262 321.63C266.262 321.63 254.822 317.522 257.161 312.554L260.043 310.911C261.34 310.21 262.77 309.79 264.24 309.679C265.71 309.568 267.187 309.768 268.575 310.266Z" fill="#B55B52"/>
<path d="M283.932 317.433L273.353 323.665L266.274 321.63L275.628 312.68L283.932 317.433Z" fill="#B55B52"/>
<path d="M450.351 324.195H187.919V332.74H450.351V324.195Z" fill="url(#paint15_linear_1_1500)"/>
<path opacity="0.6" d="M450.351 324.195H187.919V332.74H450.351V324.195Z" fill="white"/>
<path opacity="0.5" d="M187.906 332.74H240.274V324.196H187.906V332.74Z" fill="url(#paint16_linear_1_1500)"/>
<path d="M379.276 321.364H255.619C254.869 321.367 254.151 321.667 253.62 322.197C253.09 322.727 252.791 323.446 252.787 324.195H382.12C382.116 323.443 381.815 322.723 381.282 322.193C380.749 321.662 380.028 321.364 379.276 321.364Z" fill="url(#paint17_linear_1_1500)"/>
<path d="M395.632 263.511H311.134C310.593 263.538 310.073 263.733 309.648 264.068C309.222 264.403 308.911 264.862 308.757 265.382L294.853 317.509C294.773 317.725 294.748 317.958 294.781 318.186C294.813 318.414 294.901 318.63 295.038 318.816C295.174 319.001 295.355 319.15 295.563 319.248C295.772 319.347 296.001 319.392 296.231 319.38H380.767C381.31 319.363 381.833 319.172 382.259 318.835C382.684 318.498 382.99 318.033 383.131 317.509L397.035 265.382C397.116 265.163 397.141 264.928 397.108 264.698C397.074 264.468 396.984 264.25 396.844 264.063C396.704 263.877 396.52 263.729 396.308 263.633C396.097 263.536 395.864 263.494 395.632 263.511Z" fill="url(#paint18_linear_1_1500)"/>
<path opacity="0.2" d="M308.757 265.382L294.853 317.509C294.773 317.725 294.748 317.958 294.781 318.186C294.813 318.414 294.901 318.63 295.038 318.816C295.174 319.001 295.355 319.15 295.563 319.248C295.772 319.347 296.001 319.392 296.231 319.38L311.096 263.511C310.561 263.546 310.051 263.744 309.632 264.079C309.214 264.413 308.909 264.868 308.757 265.382Z" fill="black"/>
<path opacity="0.2" d="M291.706 321.364H255.619C254.869 321.367 254.151 321.667 253.62 322.197C253.09 322.727 252.791 323.446 252.787 324.195H294.499C294.496 323.452 294.202 322.739 293.68 322.21C293.158 321.681 292.449 321.377 291.706 321.364Z" fill="black"/>
<path d="M242.132 503.127H247.188L240.097 464.07H244.508V459.014H239.149L217.13 337.746H220.378V332.69H207.814V337.746H211.088L189.069 459.014H183.735V464.07H188.146L181.055 503.127H186.111L193.202 464.07H235.104L242.132 503.127ZM194.1 459.039L214.134 348.755L234.156 459.039H194.1Z" fill="url(#paint19_linear_1_1500)"/>
<path d="M450.287 498.476H455.343L448.252 464.07H452.664V459.014H447.33L425.311 337.746H428.496V332.69H415.932V337.746H419.18L397.161 459.014H391.84V464.07H396.251L389.16 498.476H394.216L401.307 464.07H443.196L450.287 498.476ZM402.255 459.039L422.277 348.755L442.311 459.039H402.255Z" fill="url(#paint20_linear_1_1500)"/>
<path d="M426.941 321.364H394.532C394.023 321.364 393.61 321.777 393.61 322.287V323.273C393.61 323.782 394.023 324.195 394.532 324.195H426.941C427.451 324.195 427.864 323.782 427.864 323.273V322.287C427.864 321.777 427.451 321.364 426.941 321.364Z" fill="#263238"/>
<path opacity="0.9" d="M336.982 253.74C336.752 253.743 336.523 253.697 336.311 253.605C336.099 253.513 335.909 253.377 335.754 253.207C335.598 253.036 335.481 252.834 335.41 252.614C335.338 252.395 335.314 252.162 335.339 251.933L340.534 193.485C340.587 192.996 340.816 192.542 341.179 192.209C341.542 191.876 342.014 191.687 342.506 191.678H413.644C413.875 191.675 414.104 191.721 414.316 191.813C414.528 191.905 414.718 192.04 414.873 192.211C415.028 192.382 415.145 192.584 415.217 192.804C415.288 193.023 415.312 193.256 415.287 193.485L410.092 251.933C410.04 252.422 409.811 252.876 409.448 253.209C409.085 253.542 408.613 253.731 408.12 253.74H336.982Z" fill="#263238"/>
<path d="M396.997 209.867H355.829L355.968 208.35H397.136L396.997 209.867Z" fill="white"/>
<path d="M403.456 212.294H359.848L359.975 210.777H403.595L403.456 212.294Z" fill="url(#paint21_linear_1_1500)"/>
<path d="M395.771 214.72H359.633L359.76 213.204H395.897L395.771 214.72Z" fill="url(#paint22_linear_1_1500)"/>
<path d="M391.777 217.147H359.418L359.545 215.631H391.916L391.777 217.147Z" fill="url(#paint23_linear_1_1500)"/>
<path d="M381.589 221.104H354.843L354.969 219.574H381.715L381.589 221.104Z" fill="white"/>
<path d="M387.264 226.855H358.546L358.42 228.384H387.125L387.264 226.855Z" fill="url(#paint24_linear_1_1500)"/>
<path d="M382.562 224.428H358.761L358.635 225.957H382.423L382.562 224.428Z" fill="url(#paint25_linear_1_1500)"/>
<path d="M385.191 222.001H358.976L358.85 223.531H385.052L385.191 222.001Z" fill="url(#paint26_linear_1_1500)"/>
<path d="M379.933 239.609H353.187L353.326 238.092H380.072L379.933 239.609Z" fill="white"/>
<path d="M385.621 245.372H356.903L356.764 246.889H385.482L385.621 245.372Z" fill="url(#paint27_linear_1_1500)"/>
<path d="M380.919 242.946H357.118L356.992 244.462H380.78L380.919 242.946Z" fill="url(#paint28_linear_1_1500)"/>
<path d="M383.548 240.519H357.333L357.206 242.036H383.409L383.548 240.519Z" fill="url(#paint29_linear_1_1500)"/>
<path d="M369.139 198.554H347.423L347.549 197.024H369.278L369.139 198.554Z" fill="white"/>
<path d="M373.664 204.305H350.343L350.204 205.835H373.525L373.664 204.305Z" fill="white"/>
<path d="M369.872 201.878H350.558L350.419 203.408H369.745L369.872 201.878Z" fill="white"/>
<path d="M372.046 199.451H350.773L350.634 200.981H371.919L372.046 199.451Z" fill="white"/>
<path d="M386.62 234.135H357.902L357.763 235.665H386.481L386.62 234.135Z" fill="url(#paint30_linear_1_1500)"/>
<path d="M381.918 231.709H358.117L357.977 233.238H381.779L381.918 231.709Z" fill="url(#paint31_linear_1_1500)"/>
<path d="M384.547 229.282H358.331L358.205 230.811H384.408L384.547 229.282Z" fill="url(#paint32_linear_1_1500)"/>
<path d="M436.99 183.563H389.577C389.159 183.569 388.744 183.486 388.36 183.32C387.975 183.153 387.631 182.907 387.349 182.598C387.067 182.288 386.854 181.922 386.724 181.524C386.594 181.126 386.55 180.705 386.594 180.289L390.159 140.208C390.248 139.35 390.649 138.555 391.285 137.973C391.921 137.391 392.748 137.062 393.61 137.048H441.01C441.428 137.042 441.843 137.125 442.228 137.291C442.612 137.457 442.956 137.704 443.238 138.013C443.52 138.322 443.733 138.688 443.863 139.086C443.993 139.484 444.037 139.905 443.993 140.321L440.428 180.403C440.342 181.259 439.944 182.054 439.31 182.637C438.676 183.219 437.851 183.549 436.99 183.563ZM393.61 138.312C393.062 138.324 392.537 138.534 392.132 138.903C391.728 139.273 391.471 139.777 391.41 140.321L387.858 180.403C387.829 180.646 387.852 180.893 387.926 181.126C388 181.359 388.124 181.574 388.288 181.755C388.451 181.928 388.646 182.065 388.864 182.158C389.081 182.252 389.316 182.299 389.552 182.299H436.965C437.511 182.287 438.034 182.076 438.437 181.706C438.839 181.336 439.093 180.833 439.152 180.289L442.716 140.208C442.739 139.966 442.711 139.722 442.635 139.491C442.559 139.261 442.436 139.048 442.274 138.868C442.113 138.693 441.917 138.553 441.7 138.457C441.482 138.362 441.247 138.312 441.01 138.312H393.61Z" fill="url(#paint33_linear_1_1500)"/>
<path d="M442.653 148.992H390.07C389.903 148.992 389.742 148.926 389.624 148.807C389.505 148.689 389.438 148.528 389.438 148.36C389.438 148.193 389.505 148.032 389.624 147.914C389.742 147.795 389.903 147.728 390.07 147.728H442.653C442.82 147.728 442.981 147.795 443.1 147.914C443.218 148.032 443.285 148.193 443.285 148.36C443.282 148.527 443.214 148.686 443.096 148.804C442.978 148.922 442.819 148.989 442.653 148.992Z" fill="url(#paint34_linear_1_1500)"/>
<path d="M399.424 183.563H399.361C399.278 183.557 399.198 183.534 399.124 183.496C399.05 183.458 398.985 183.405 398.932 183.342C398.879 183.278 398.839 183.205 398.815 183.125C398.791 183.046 398.783 182.963 398.792 182.88L401.864 148.297C401.883 148.133 401.964 147.982 402.091 147.877C402.218 147.771 402.381 147.718 402.546 147.728C402.629 147.735 402.71 147.758 402.784 147.795C402.859 147.833 402.925 147.885 402.979 147.949C403.033 148.012 403.074 148.086 403.099 148.165C403.125 148.244 403.134 148.328 403.128 148.411L400.043 183.032C400.017 183.178 399.941 183.311 399.828 183.408C399.715 183.505 399.573 183.559 399.424 183.563Z" fill="url(#paint35_linear_1_1500)"/>
<path d="M436.485 153.1H407.943C407.776 153.1 407.615 153.034 407.497 152.915C407.378 152.797 407.311 152.636 407.311 152.468C407.311 152.301 407.378 152.14 407.497 152.022C407.615 151.903 407.776 151.836 407.943 151.836H436.485C436.652 151.836 436.813 151.903 436.931 152.022C437.05 152.14 437.117 152.301 437.117 152.468C437.117 152.636 437.05 152.797 436.931 152.915C436.813 153.034 436.652 153.1 436.485 153.1Z" fill="url(#paint36_linear_1_1500)"/>
<path d="M432.01 158.144H407.488C407.322 158.141 407.163 158.073 407.045 157.955C406.927 157.837 406.86 157.678 406.856 157.512C406.856 157.344 406.923 157.183 407.041 157.065C407.16 156.946 407.321 156.88 407.488 156.88H432.01C432.178 156.88 432.338 156.946 432.457 157.065C432.575 157.183 432.642 157.344 432.642 157.512C432.642 157.679 432.575 157.84 432.457 157.959C432.338 158.077 432.178 158.144 432.01 158.144Z" fill="url(#paint37_linear_1_1500)"/>
<path d="M421.304 163.339H407.008C406.84 163.339 406.68 163.272 406.561 163.154C406.443 163.035 406.376 162.875 406.376 162.707C406.376 162.539 406.443 162.379 406.561 162.26C406.68 162.141 406.84 162.075 407.008 162.075H421.279C421.445 162.078 421.604 162.146 421.722 162.264C421.84 162.381 421.907 162.54 421.911 162.707C421.911 162.87 421.848 163.027 421.735 163.145C421.621 163.263 421.467 163.332 421.304 163.339Z" fill="url(#paint38_linear_1_1500)"/>
<path d="M423.554 173.489H406.123C405.956 173.489 405.795 173.422 405.676 173.304C405.558 173.185 405.491 173.024 405.491 172.857C405.494 172.69 405.562 172.531 405.68 172.413C405.798 172.296 405.957 172.228 406.123 172.225H423.554C423.72 172.228 423.879 172.296 423.997 172.413C424.115 172.531 424.183 172.69 424.186 172.857C424.186 172.94 424.169 173.022 424.138 173.099C424.106 173.175 424.059 173.245 424.001 173.304C423.942 173.362 423.872 173.409 423.796 173.441C423.719 173.472 423.637 173.489 423.554 173.489Z" fill="url(#paint39_linear_1_1500)"/>
<path d="M419.939 178.696H405.668C405.501 178.696 405.34 178.63 405.221 178.511C405.103 178.393 405.036 178.232 405.036 178.064C405.036 177.897 405.103 177.736 405.221 177.618C405.34 177.499 405.501 177.432 405.668 177.432H419.939C420.106 177.432 420.267 177.499 420.386 177.618C420.504 177.736 420.571 177.897 420.571 178.064C420.571 178.232 420.504 178.393 420.386 178.511C420.267 178.63 420.106 178.696 419.939 178.696Z" fill="url(#paint40_linear_1_1500)"/>
<path d="M428.294 178.696H423.718C423.551 178.696 423.39 178.63 423.271 178.511C423.153 178.393 423.086 178.232 423.086 178.064C423.086 177.897 423.153 177.736 423.271 177.618C423.39 177.499 423.551 177.432 423.718 177.432H428.294C428.461 177.432 428.622 177.499 428.741 177.618C428.859 177.736 428.926 177.897 428.926 178.064C428.926 178.232 428.859 178.393 428.741 178.511C428.622 178.63 428.461 178.696 428.294 178.696Z" fill="url(#paint41_linear_1_1500)"/>
<path d="M433.312 168.382H406.578C406.411 168.382 406.25 168.316 406.131 168.197C406.013 168.079 405.946 167.918 405.946 167.75C405.946 167.583 406.013 167.422 406.131 167.303C406.25 167.185 406.411 167.118 406.578 167.118H433.312C433.479 167.118 433.64 167.185 433.759 167.303C433.877 167.422 433.944 167.583 433.944 167.75C433.944 167.918 433.877 168.079 433.759 168.197C433.64 168.316 433.479 168.382 433.312 168.382Z" fill="url(#paint42_linear_1_1500)"/>
<path d="M338.929 179.632C338.758 179.631 338.595 179.563 338.474 179.442C338.358 179.324 338.293 179.165 338.293 179C338.293 178.834 338.358 178.676 338.474 178.557L341.634 175.397L338.474 172.25C338.415 172.191 338.368 172.121 338.336 172.044C338.304 171.967 338.288 171.885 338.288 171.801C338.288 171.718 338.304 171.636 338.336 171.559C338.368 171.482 338.415 171.412 338.474 171.353C338.533 171.294 338.603 171.247 338.68 171.215C338.757 171.183 338.839 171.167 338.923 171.167C339.006 171.167 339.089 171.183 339.165 171.215C339.242 171.247 339.312 171.294 339.371 171.353L342.974 174.955C343.09 175.075 343.156 175.236 343.156 175.404C343.156 175.571 343.09 175.732 342.974 175.852L339.371 179.442C339.314 179.502 339.245 179.549 339.169 179.582C339.093 179.614 339.012 179.631 338.929 179.632Z" fill="#263238"/>
<path d="M328.134 179.632C328.052 179.631 327.97 179.614 327.894 179.582C327.818 179.549 327.749 179.502 327.692 179.442L324.09 175.852C323.973 175.732 323.908 175.571 323.908 175.404C323.908 175.236 323.973 175.075 324.09 174.955L327.692 171.353C327.751 171.294 327.821 171.247 327.898 171.215C327.975 171.183 328.057 171.167 328.141 171.167C328.224 171.167 328.307 171.183 328.384 171.215C328.461 171.247 328.531 171.294 328.589 171.353C328.648 171.412 328.695 171.482 328.727 171.559C328.759 171.636 328.775 171.718 328.775 171.801C328.775 171.885 328.759 171.967 328.727 172.044C328.695 172.121 328.648 172.191 328.589 172.25L325.429 175.397L328.589 178.557C328.705 178.676 328.77 178.834 328.77 179C328.77 179.165 328.705 179.324 328.589 179.442C328.469 179.563 328.305 179.631 328.134 179.632Z" fill="#263238"/>
<path d="M332.179 179.632C332.108 179.644 332.035 179.644 331.964 179.632C331.809 179.572 331.684 179.454 331.615 179.303C331.546 179.151 331.54 178.979 331.598 178.823L334.29 171.618C334.35 171.463 334.468 171.337 334.619 171.269C334.771 171.2 334.943 171.194 335.099 171.252C335.257 171.309 335.385 171.426 335.456 171.577C335.527 171.729 335.535 171.903 335.478 172.06L332.773 179.265C332.723 179.379 332.639 179.475 332.533 179.54C332.427 179.606 332.304 179.638 332.179 179.632Z" fill="#263238"/>
<path d="M419.56 272.902C419.477 272.903 419.394 272.887 419.318 272.854C419.242 272.822 419.174 272.774 419.117 272.713C419.058 272.654 419.011 272.584 418.979 272.507C418.947 272.43 418.93 272.347 418.93 272.264C418.93 272.181 418.947 272.098 418.979 272.021C419.011 271.944 419.058 271.874 419.117 271.815L422.264 268.668L419.117 265.508C419 265.391 418.934 265.232 418.934 265.066C418.934 264.9 419 264.741 419.117 264.623C419.234 264.506 419.394 264.44 419.56 264.44C419.725 264.44 419.885 264.506 420.002 264.623L423.604 268.213C423.723 268.335 423.791 268.498 423.794 268.668C423.79 268.834 423.722 268.993 423.604 269.11L420.002 272.776C419.94 272.825 419.869 272.862 419.793 272.884C419.718 272.905 419.638 272.912 419.56 272.902Z" fill="url(#paint43_linear_1_1500)"/>
<path d="M408.765 272.902C408.679 272.917 408.59 272.913 408.505 272.891C408.42 272.869 408.341 272.83 408.272 272.776L404.67 269.174C404.553 269.053 404.488 268.892 404.488 268.725C404.488 268.557 404.553 268.396 404.67 268.276L408.272 264.686C408.331 264.627 408.401 264.58 408.478 264.548C408.555 264.516 408.637 264.499 408.721 264.499C408.804 264.499 408.887 264.516 408.964 264.548C409.041 264.58 409.111 264.627 409.169 264.686C409.285 264.805 409.35 264.963 409.35 265.129C409.35 265.294 409.285 265.453 409.169 265.571L406.009 268.731L409.169 271.879C409.286 271.999 409.351 272.16 409.351 272.327C409.351 272.495 409.286 272.656 409.169 272.776C409.053 272.863 408.91 272.907 408.765 272.902Z" fill="url(#paint44_linear_1_1500)"/>
<path d="M412.822 272.902C412.748 272.92 412.67 272.92 412.595 272.902C412.517 272.874 412.446 272.831 412.385 272.775C412.324 272.719 412.275 272.651 412.241 272.575C412.207 272.5 412.188 272.418 412.186 272.336C412.184 272.253 412.198 272.171 412.228 272.093L414.921 264.889C414.979 264.731 415.098 264.603 415.251 264.533C415.404 264.463 415.578 264.457 415.736 264.516C415.894 264.574 416.021 264.693 416.091 264.846C416.161 264.999 416.168 265.173 416.109 265.331L413.404 272.536C413.354 272.648 413.272 272.742 413.169 272.807C413.065 272.872 412.945 272.906 412.822 272.902Z" fill="url(#paint45_linear_1_1500)"/>
<path d="M391.018 129.565C390.848 129.564 390.684 129.496 390.563 129.375C390.448 129.257 390.383 129.098 390.383 128.933C390.383 128.767 390.448 128.609 390.563 128.49L393.723 125.33L390.563 122.183C390.444 122.064 390.378 121.903 390.378 121.734C390.378 121.566 390.444 121.405 390.563 121.286C390.682 121.167 390.844 121.1 391.012 121.1C391.18 121.1 391.342 121.167 391.461 121.286L395.063 124.888C395.18 125.008 395.245 125.169 395.245 125.337C395.245 125.504 395.18 125.665 395.063 125.785L391.461 129.375C391.403 129.435 391.335 129.482 391.259 129.515C391.183 129.547 391.101 129.564 391.018 129.565Z" fill="url(#paint46_linear_1_1500)"/>
<path d="M380.224 129.565C380.057 129.562 379.898 129.494 379.781 129.375L376.179 125.785C376.062 125.665 375.997 125.504 375.997 125.337C375.997 125.169 376.062 125.008 376.179 124.888L379.781 121.286C379.9 121.167 380.062 121.1 380.23 121.1C380.398 121.1 380.56 121.167 380.679 121.286C380.798 121.405 380.865 121.566 380.865 121.734C380.865 121.903 380.798 122.064 380.679 122.183L377.519 125.33L380.679 128.49C380.795 128.609 380.86 128.767 380.86 128.933C380.86 129.098 380.795 129.257 380.679 129.375C380.558 129.496 380.395 129.564 380.224 129.565Z" fill="url(#paint47_linear_1_1500)"/>
<path d="M384.256 129.565H384.041C383.886 129.505 383.76 129.387 383.692 129.236C383.623 129.084 383.617 128.912 383.675 128.756L386.367 121.551C386.426 121.396 386.545 121.27 386.696 121.202C386.848 121.133 387.02 121.127 387.176 121.184C387.333 121.242 387.462 121.359 387.533 121.51C387.604 121.662 387.612 121.836 387.555 121.993L384.85 129.198C384.799 129.312 384.716 129.408 384.61 129.473C384.504 129.539 384.38 129.57 384.256 129.565Z" fill="url(#paint48_linear_1_1500)"/>
<path d="M66.4678 452.237C66.3369 452.374 67.0436 453.301 64.1906 452.9C57.1888 451.886 44.9651 449.143 41.5754 442.268C36.72 432.412 51.7706 436.007 51.2471 430.997C50.7236 425.988 33.6052 426.827 31.7861 419.438C29.9669 412.05 41.5886 415.569 41.7325 411.924C41.8765 408.28 28.5011 410.559 25.8444 402.595C23.1876 394.63 33.3042 400.491 32.1525 397.172C31.0008 393.854 19.6671 378.863 25.8182 377.135C31.9693 375.407 42.3607 390.785 46.3655 392.964C50.3702 395.143 53.93 382.583 58.7069 387.88C63.4838 393.177 55.9062 411.737 61.9918 415.343C66.5332 418.023 65.2506 410.635 71.2316 412.012C79.3719 413.891 76.6367 441.354 66.4678 452.237Z" fill="#EBEBEB"/>
<path d="M44.4781 412.264C46.6121 412.401 48.7169 412.8 50.7369 413.451C49.408 411.584 47.9209 409.816 46.2895 408.166C46.1896 408.07 46.1337 407.943 46.1337 407.81C46.1337 407.677 46.1896 407.549 46.2895 407.454C46.3906 407.362 46.5265 407.311 46.668 407.311C46.8095 407.311 46.9454 407.362 47.0465 407.454C50.5492 411.079 53.5465 415.097 55.9683 419.411C57.2192 411.3 55.9974 403.026 52.4401 395.521C52.3994 395.433 52.3972 395.333 52.4339 395.243C52.4706 395.153 52.5435 395.079 52.6374 395.037C52.7314 394.995 52.8391 394.989 52.9383 395.018C53.0375 395.048 53.1205 395.112 53.1701 395.196C53.1701 395.321 59.3612 407.154 56.5766 420.461C57.3201 421.773 58.0635 423.16 58.807 424.659C61.3982 430.021 63.4481 435.592 64.9306 441.302C67.5997 436.631 69.0618 431.452 69.2022 426.171C69.2022 426.122 69.2127 426.074 69.2333 426.029C69.2538 425.984 69.2839 425.944 69.3218 425.91C69.3596 425.876 69.4044 425.85 69.4536 425.832C69.5027 425.815 69.5551 425.807 69.6077 425.808C69.6604 425.808 69.7125 425.818 69.761 425.837C69.8094 425.856 69.8532 425.884 69.8898 425.919C69.9264 425.954 69.955 425.995 69.9739 426.041C69.9928 426.086 70.0016 426.135 69.9998 426.183C69.8763 431.857 68.2272 437.414 65.201 442.351C67.9374 453.559 68.8486 465.081 67.9045 476.537C67.8908 476.668 67.8226 476.79 67.7143 476.876C67.606 476.962 67.4659 477.006 67.3232 476.999H67.2556C67.128 476.975 67.0145 476.908 66.9371 476.811C66.8597 476.714 66.8239 476.594 66.8366 476.474C68.1039 461.94 66.2149 447.318 61.2808 433.468C59.0742 431.098 56.0531 429.501 52.724 428.945C52.6185 428.929 52.5238 428.876 52.4605 428.796C52.3973 428.717 52.3705 428.618 52.386 428.52C52.3942 428.472 52.4126 428.426 52.4403 428.385C52.468 428.344 52.5044 428.308 52.5472 428.28C52.5901 428.252 52.6386 428.232 52.6898 428.222C52.7411 428.212 52.7941 428.211 52.8456 428.22C55.7746 428.68 58.492 429.927 60.6589 431.806C58.3365 425.768 55.2655 419.999 51.5074 414.613C49.2437 413.731 46.8354 413.207 44.3835 413.064C44.3211 413.059 44.2608 413.041 44.2068 413.012C44.1529 412.983 44.1067 412.943 44.0717 412.895C44.0367 412.847 44.0138 412.792 44.0046 412.735C43.9954 412.678 44.0001 412.619 44.0185 412.564C44.0267 412.516 44.0451 412.47 44.0728 412.429C44.1005 412.388 44.1368 412.352 44.1797 412.324C44.2225 412.296 44.271 412.277 44.3223 412.266C44.3736 412.256 44.4265 412.255 44.4781 412.264Z" fill="#F5F5F5"/>
<path d="M76.1225 455.999C81.9504 456.099 91.9037 450.894 95.7671 445.827C99.6306 440.76 88.5772 443.874 89.7166 439.828C90.856 435.782 104.62 438.769 107.161 432.984C109.702 427.199 99.7746 428.535 100.168 425.573C100.56 422.611 110.854 423.216 114.155 417.065C117.455 410.914 108.405 414.355 109.833 411.809C111.26 409.263 122.589 398.525 117.848 396.294C113.107 394.063 102.459 405.23 98.8972 406.478C95.335 407.726 94.5099 400.012 89.8737 403.705C85.2376 407.398 88.7082 423.531 83.2469 425.661C79.1871 427.249 80.9158 419.85 76.2403 421.716C68.1075 424.98 73.752 455.948 76.1225 455.999Z" fill="#E0E0E0"/>
<g opacity="0.3">
<path d="M75.9307 456.336C81.8223 456.436 91.8844 451.245 95.7901 446.192C99.6958 441.139 88.5216 444.244 89.6734 440.209C90.8253 436.174 104.74 439.153 107.309 433.384C109.877 427.614 99.8414 428.947 100.239 425.993C100.636 423.039 111.042 423.643 114.379 417.509C117.715 411.375 108.566 414.806 110.009 412.267C111.453 409.728 122.905 399.019 118.112 396.794C113.319 394.569 102.556 405.706 98.9544 406.95C95.3532 408.195 94.5191 400.502 89.8323 404.185C85.1455 407.868 88.654 423.957 83.133 426.081C79.0288 427.665 80.7764 420.286 76.0498 422.147C67.828 425.402 73.5343 456.285 75.9307 456.336Z" fill="#EBEBEB"/>
</g>
<path d="M78.1745 449.986C78.1285 449.977 78.0855 449.957 78.049 449.929C78.0124 449.9 77.9833 449.864 77.9639 449.823C75.7154 445.13 74.8071 439.953 75.3311 434.816C75.3345 434.767 75.3481 434.718 75.3711 434.674C75.3941 434.629 75.426 434.589 75.4652 434.556C75.5043 434.524 75.5498 434.499 75.5991 434.483C75.6484 434.467 75.7005 434.461 75.7524 434.464C75.8559 434.474 75.9517 434.521 76.0203 434.595C76.0888 434.67 76.1248 434.767 76.121 434.867C75.6715 439.739 76.4853 444.643 78.4904 449.144C80.91 442.89 83.8964 436.85 87.4155 431.093C86.9587 423.418 88.8624 415.783 92.8917 409.13C92.9538 409.061 93.0397 409.017 93.1335 409.004C93.2273 408.991 93.3229 409.011 93.4027 409.06C93.4825 409.108 93.5414 409.183 93.5684 409.27C93.5954 409.357 93.5888 409.45 93.5499 409.532C89.8188 415.73 87.9426 422.788 88.1264 429.936C92.3389 423.028 97.3651 416.605 103.107 410.79C103.205 410.698 103.338 410.646 103.475 410.646C103.613 410.646 103.746 410.698 103.844 410.79C103.893 410.836 103.933 410.891 103.959 410.951C103.986 411.012 104 411.077 104 411.143C104 411.208 103.986 411.273 103.959 411.334C103.933 411.394 103.893 411.449 103.844 411.495C99.5893 415.772 95.7474 420.407 92.3651 425.344C95.9079 424.074 99.6653 423.439 103.449 423.47C103.553 423.476 103.65 423.52 103.721 423.593C103.792 423.665 103.831 423.761 103.831 423.86C103.827 423.958 103.784 424.051 103.711 424.119C103.637 424.187 103.538 424.225 103.436 424.225C99.3715 424.184 95.3409 424.933 91.5885 426.426C89.2753 429.813 87.1444 433.31 85.204 436.904C86.7802 435.861 88.5744 435.157 90.4628 434.84C92.3513 434.523 94.2892 434.601 96.1431 435.068C96.1928 435.079 96.2396 435.101 96.2806 435.13C96.3216 435.159 96.356 435.196 96.3818 435.238C96.4076 435.281 96.4242 435.327 96.4307 435.376C96.4372 435.424 96.4334 435.474 96.4196 435.521C96.4091 435.569 96.3881 435.615 96.3579 435.655C96.3277 435.695 96.289 435.729 96.2443 435.754C96.1996 435.779 96.1499 435.794 96.0985 435.8C96.047 435.805 95.9949 435.8 95.9457 435.785C93.9373 435.286 91.8311 435.27 89.8146 435.737C87.7981 436.205 85.9339 437.142 84.3878 438.464C77.6024 451.227 73.7302 465.222 73.0275 479.522C73.0207 479.651 72.9623 479.773 72.8642 479.862C72.7662 479.951 72.6361 480 72.5009 480C72.4323 479.998 72.3648 479.984 72.3023 479.957C72.2397 479.93 72.1835 479.891 72.1369 479.843C72.0902 479.795 72.0542 479.738 72.0308 479.677C72.0074 479.615 71.9971 479.55 72.0007 479.484C72.4698 469.408 74.5519 459.46 78.1745 449.986Z" fill="#F5F5F5"/>
<path d="M59.3653 511C53.6792 501.056 50 486.713 50 480.424C50.0262 477.85 50.6618 475.313 51.8619 472.993C53.0619 470.673 54.7969 468.627 56.9437 467H86.0697C88.2148 468.628 89.9477 470.674 91.1455 472.994C92.3432 475.314 92.9764 477.851 93 480.424C93 486.713 89.2673 501.069 83.6347 511H59.3653Z" fill="#F0F0F0"/>
<defs>
<linearGradient id="paint0_linear_1_1500" x1="230.44" y1="370.06" x2="339.384" y2="370.06" gradientUnits="userSpaceOnUse">
<stop offset="0.0673077" stop-color="#013C75" stop-opacity="0.8"/>
<stop offset="0.817308" stop-color="#00ACEE"/>
</linearGradient>
<linearGradient id="paint1_linear_1_1500" x1="211.88" y1="370.06" x2="255.72" y2="370.06" gradientUnits="userSpaceOnUse">
<stop offset="0.0673077" stop-color="#013C75" stop-opacity="0.8"/>
<stop offset="0.817308" stop-color="#00ACEE"/>
</linearGradient>
<linearGradient id="paint2_linear_1_1500" x1="249.463" y1="439.118" x2="299.126" y2="439.118" gradientUnits="userSpaceOnUse">
<stop offset="0.0673077" stop-color="#013C75" stop-opacity="0.8"/>
<stop offset="0.817308" stop-color="#00ACEE"/>
</linearGradient>
<linearGradient id="paint3_linear_1_1500" x1="269.106" y1="378.661" x2="279.483" y2="378.661" gradientUnits="userSpaceOnUse">
<stop offset="0.0673077" stop-color="#013C75" stop-opacity="0.8"/>
<stop offset="0.817308" stop-color="#00ACEE"/>
</linearGradient>
<linearGradient id="paint4_linear_1_1500" x1="335.327" y1="465.53" x2="362.528" y2="465.53" gradientUnits="userSpaceOnUse">
<stop offset="0.0673077" stop-color="#013C75" stop-opacity="0.8"/>
<stop offset="0.817308" stop-color="#00ACEE"/>
</linearGradient>
<linearGradient id="paint5_linear_1_1500" x1="360.04" y1="480.951" x2="365.811" y2="480.951" gradientUnits="userSpaceOnUse">
<stop offset="0.0673077" stop-color="#013C75" stop-opacity="0.8"/>
<stop offset="0.817308" stop-color="#00ACEE"/>
</linearGradient>
<linearGradient id="paint6_linear_1_1500" x1="359.829" y1="479.723" x2="362.632" y2="479.723" gradientUnits="userSpaceOnUse">
<stop offset="0.0673077" stop-color="#013C75" stop-opacity="0.8"/>
<stop offset="0.817308" stop-color="#00ACEE"/>
</linearGradient>
<linearGradient id="paint7_linear_1_1500" x1="310.828" y1="489.007" x2="316.787" y2="489.007" gradientUnits="userSpaceOnUse">
<stop offset="0.0673077" stop-color="#013C75" stop-opacity="0.8"/>
<stop offset="0.817308" stop-color="#00ACEE"/>
</linearGradient>
<linearGradient id="paint8_linear_1_1500" x1="310.823" y1="487.354" x2="314.024" y2="487.354" gradientUnits="userSpaceOnUse">
<stop offset="0.0673077" stop-color="#013C75" stop-opacity="0.8"/>
<stop offset="0.817308" stop-color="#00ACEE"/>
</linearGradient>
<linearGradient id="paint9_linear_1_1500" x1="290.872" y1="469.328" x2="319.021" y2="469.328" gradientUnits="userSpaceOnUse">
<stop offset="0.0673077" stop-color="#013C75" stop-opacity="0.8"/>
<stop offset="0.817308" stop-color="#00ACEE"/>
</linearGradient>
<linearGradient id="paint10_linear_1_1500" x1="255.626" y1="260.974" x2="288.71" y2="260.974" gradientUnits="userSpaceOnUse">
<stop offset="0.0673077" stop-color="#013C75" stop-opacity="0.8"/>
<stop offset="0.817308" stop-color="#00ACEE"/>
</linearGradient>
<linearGradient id="paint11_linear_1_1500" x1="207.966" y1="276.897" x2="279.222" y2="276.897" gradientUnits="userSpaceOnUse">
<stop offset="0.0673077" stop-color="#013C75" stop-opacity="0.8"/>
<stop offset="0.817308" stop-color="#00ACEE"/>
</linearGradient>
<linearGradient id="paint12_linear_1_1500" x1="248.008" y1="185.47" x2="286.582" y2="185.47" gradientUnits="userSpaceOnUse">
<stop offset="0.0673077" stop-color="#013C75" stop-opacity="0.8"/>
<stop offset="0.817308" stop-color="#00ACEE"/>
</linearGradient>
<linearGradient id="paint13_linear_1_1500" x1="246.687" y1="194.113" x2="288.378" y2="194.113" gradientUnits="userSpaceOnUse">
<stop offset="0.0673077" stop-color="#013C75" stop-opacity="0.8"/>
<stop offset="0.817308" stop-color="#00ACEE"/>
</linearGradient>
<linearGradient id="paint14_linear_1_1500" x1="203.883" y1="252.139" x2="242.162" y2="252.139" gradientUnits="userSpaceOnUse">
<stop offset="0.0673077" stop-color="#013C75" stop-opacity="0.8"/>
<stop offset="0.817308" stop-color="#00ACEE"/>
</linearGradient>
<linearGradient id="paint15_linear_1_1500" x1="187.919" y1="328.468" x2="450.351" y2="328.468" gradientUnits="userSpaceOnUse">
<stop offset="0.0673077" stop-color="#013C75" stop-opacity="0.8"/>
<stop offset="0.817308" stop-color="#00ACEE"/>
</linearGradient>
<linearGradient id="paint16_linear_1_1500" x1="240.274" y1="328.468" x2="187.906" y2="328.468" gradientUnits="userSpaceOnUse">
<stop offset="0.0673077" stop-color="#013C75" stop-opacity="0.8"/>
<stop offset="0.817308" stop-color="#00ACEE"/>
</linearGradient>
<linearGradient id="paint17_linear_1_1500" x1="252.787" y1="322.78" x2="382.12" y2="322.78" gradientUnits="userSpaceOnUse">
<stop offset="0.0673077" stop-color="#013C75" stop-opacity="0.8"/>
<stop offset="0.817308" stop-color="#00ACEE"/>
</linearGradient>
<linearGradient id="paint18_linear_1_1500" x1="294.767" y1="291.444" x2="397.122" y2="291.444" gradientUnits="userSpaceOnUse">
<stop offset="0.0673077" stop-color="#013C75" stop-opacity="0.8"/>
<stop offset="0.817308" stop-color="#00ACEE"/>
</linearGradient>
<linearGradient id="paint19_linear_1_1500" x1="181.055" y1="417.908" x2="247.188" y2="417.908" gradientUnits="userSpaceOnUse">
<stop offset="0.0673077" stop-color="#013C75" stop-opacity="0.8"/>
<stop offset="0.817308" stop-color="#00ACEE"/>
</linearGradient>
<linearGradient id="paint20_linear_1_1500" x1="389.16" y1="415.583" x2="455.343" y2="415.583" gradientUnits="userSpaceOnUse">
<stop offset="0.0673077" stop-color="#013C75" stop-opacity="0.8"/>
<stop offset="0.817308" stop-color="#00ACEE"/>
</linearGradient>
<linearGradient id="paint21_linear_1_1500" x1="359.848" y1="211.535" x2="403.595" y2="211.535" gradientUnits="userSpaceOnUse">
<stop offset="0.0673077" stop-color="#013C75" stop-opacity="0.8"/>
<stop offset="0.817308" stop-color="#00ACEE"/>
</linearGradient>
<linearGradient id="paint22_linear_1_1500" x1="359.633" y1="213.962" x2="395.897" y2="213.962" gradientUnits="userSpaceOnUse">
<stop offset="0.0673077" stop-color="#013C75" stop-opacity="0.8"/>
<stop offset="0.817308" stop-color="#00ACEE"/>
</linearGradient>
<linearGradient id="paint23_linear_1_1500" x1="359.418" y1="216.389" x2="391.916" y2="216.389" gradientUnits="userSpaceOnUse">
<stop offset="0.0673077" stop-color="#013C75" stop-opacity="0.8"/>
<stop offset="0.817308" stop-color="#00ACEE"/>
</linearGradient>
<linearGradient id="paint24_linear_1_1500" x1="358.42" y1="227.62" x2="387.264" y2="227.62" gradientUnits="userSpaceOnUse">
<stop offset="0.0673077" stop-color="#013C75" stop-opacity="0.8"/>
<stop offset="0.817308" stop-color="#00ACEE"/>
</linearGradient>
<linearGradient id="paint25_linear_1_1500" x1="358.635" y1="225.193" x2="382.562" y2="225.193" gradientUnits="userSpaceOnUse">
<stop offset="0.0673077" stop-color="#013C75" stop-opacity="0.8"/>
<stop offset="0.817308" stop-color="#00ACEE"/>
</linearGradient>
<linearGradient id="paint26_linear_1_1500" x1="358.85" y1="222.766" x2="385.191" y2="222.766" gradientUnits="userSpaceOnUse">
<stop offset="0.0673077" stop-color="#013C75" stop-opacity="0.8"/>
<stop offset="0.817308" stop-color="#00ACEE"/>
</linearGradient>
<linearGradient id="paint27_linear_1_1500" x1="356.764" y1="246.131" x2="385.621" y2="246.131" gradientUnits="userSpaceOnUse">
<stop offset="0.0673077" stop-color="#013C75" stop-opacity="0.8"/>
<stop offset="0.817308" stop-color="#00ACEE"/>
</linearGradient>
<linearGradient id="paint28_linear_1_1500" x1="356.992" y1="243.704" x2="380.919" y2="243.704" gradientUnits="userSpaceOnUse">
<stop offset="0.0673077" stop-color="#013C75" stop-opacity="0.8"/>
<stop offset="0.817308" stop-color="#00ACEE"/>
</linearGradient>
<linearGradient id="paint29_linear_1_1500" x1="357.206" y1="241.277" x2="383.548" y2="241.277" gradientUnits="userSpaceOnUse">
<stop offset="0.0673077" stop-color="#013C75" stop-opacity="0.8"/>
<stop offset="0.817308" stop-color="#00ACEE"/>
</linearGradient>
<linearGradient id="paint30_linear_1_1500" x1="357.763" y1="234.9" x2="386.62" y2="234.9" gradientUnits="userSpaceOnUse">
<stop offset="0.0673077" stop-color="#013C75" stop-opacity="0.8"/>
<stop offset="0.817308" stop-color="#00ACEE"/>
</linearGradient>
<linearGradient id="paint31_linear_1_1500" x1="357.977" y1="232.473" x2="381.918" y2="232.473" gradientUnits="userSpaceOnUse">
<stop offset="0.0673077" stop-color="#013C75" stop-opacity="0.8"/>
<stop offset="0.817308" stop-color="#00ACEE"/>
</linearGradient>
<linearGradient id="paint32_linear_1_1500" x1="358.205" y1="230.046" x2="384.547" y2="230.046" gradientUnits="userSpaceOnUse">
<stop offset="0.0673077" stop-color="#013C75" stop-opacity="0.8"/>
<stop offset="0.817308" stop-color="#00ACEE"/>
</linearGradient>
<linearGradient id="paint33_linear_1_1500" x1="386.577" y1="160.305" x2="444.01" y2="160.305" gradientUnits="userSpaceOnUse">
<stop offset="0.0673077" stop-color="#013C75" stop-opacity="0.8"/>
<stop offset="0.817308" stop-color="#00ACEE"/>
</linearGradient>
<linearGradient id="paint34_linear_1_1500" x1="389.438" y1="148.36" x2="443.285" y2="148.36" gradientUnits="userSpaceOnUse">
<stop offset="0.0673077" stop-color="#013C75" stop-opacity="0.8"/>
<stop offset="0.817308" stop-color="#00ACEE"/>
</linearGradient>
<linearGradient id="paint35_linear_1_1500" x1="398.789" y1="165.645" x2="403.13" y2="165.645" gradientUnits="userSpaceOnUse">
<stop offset="0.0673077" stop-color="#013C75" stop-opacity="0.8"/>
<stop offset="0.817308" stop-color="#00ACEE"/>
</linearGradient>
<linearGradient id="paint36_linear_1_1500" x1="407.311" y1="152.468" x2="437.117" y2="152.468" gradientUnits="userSpaceOnUse">
<stop offset="0.0673077" stop-color="#013C75" stop-opacity="0.8"/>
<stop offset="0.817308" stop-color="#00ACEE"/>
</linearGradient>
<linearGradient id="paint37_linear_1_1500" x1="406.856" y1="157.512" x2="432.642" y2="157.512" gradientUnits="userSpaceOnUse">
<stop offset="0.0673077" stop-color="#013C75" stop-opacity="0.8"/>
<stop offset="0.817308" stop-color="#00ACEE"/>
</linearGradient>
<linearGradient id="paint38_linear_1_1500" x1="406.376" y1="162.707" x2="421.911" y2="162.707" gradientUnits="userSpaceOnUse">
<stop offset="0.0673077" stop-color="#013C75" stop-opacity="0.8"/>
<stop offset="0.817308" stop-color="#00ACEE"/>
</linearGradient>
<linearGradient id="paint39_linear_1_1500" x1="405.491" y1="172.857" x2="424.186" y2="172.857" gradientUnits="userSpaceOnUse">
<stop offset="0.0673077" stop-color="#013C75" stop-opacity="0.8"/>
<stop offset="0.817308" stop-color="#00ACEE"/>
</linearGradient>
<linearGradient id="paint40_linear_1_1500" x1="405.036" y1="178.064" x2="420.571" y2="178.064" gradientUnits="userSpaceOnUse">
<stop offset="0.0673077" stop-color="#013C75" stop-opacity="0.8"/>
<stop offset="0.817308" stop-color="#00ACEE"/>
</linearGradient>
<linearGradient id="paint41_linear_1_1500" x1="423.086" y1="178.064" x2="428.926" y2="178.064" gradientUnits="userSpaceOnUse">
<stop offset="0.0673077" stop-color="#013C75" stop-opacity="0.8"/>
<stop offset="0.817308" stop-color="#00ACEE"/>
</linearGradient>
<linearGradient id="paint42_linear_1_1500" x1="405.946" y1="167.75" x2="433.944" y2="167.75" gradientUnits="userSpaceOnUse">
<stop offset="0.0673077" stop-color="#013C75" stop-opacity="0.8"/>
<stop offset="0.817308" stop-color="#00ACEE"/>
</linearGradient>
<linearGradient id="paint43_linear_1_1500" x1="418.93" y1="268.673" x2="423.794" y2="268.673" gradientUnits="userSpaceOnUse">
<stop offset="0.0673077" stop-color="#013C75" stop-opacity="0.8"/>
<stop offset="0.817308" stop-color="#00ACEE"/>
</linearGradient>
<linearGradient id="paint44_linear_1_1500" x1="404.488" y1="268.705" x2="409.351" y2="268.705" gradientUnits="userSpaceOnUse">
<stop offset="0.0673077" stop-color="#013C75" stop-opacity="0.8"/>
<stop offset="0.817308" stop-color="#00ACEE"/>
</linearGradient>
<linearGradient id="paint45_linear_1_1500" x1="412.186" y1="268.696" x2="416.149" y2="268.696" gradientUnits="userSpaceOnUse">
<stop offset="0.0673077" stop-color="#013C75" stop-opacity="0.8"/>
<stop offset="0.817308" stop-color="#00ACEE"/>
</linearGradient>
<linearGradient id="paint46_linear_1_1500" x1="390.378" y1="125.332" x2="395.245" y2="125.332" gradientUnits="userSpaceOnUse">
<stop offset="0.0673077" stop-color="#013C75" stop-opacity="0.8"/>
<stop offset="0.817308" stop-color="#00ACEE"/>
</linearGradient>
<linearGradient id="paint47_linear_1_1500" x1="375.997" y1="125.332" x2="380.865" y2="125.332" gradientUnits="userSpaceOnUse">
<stop offset="0.0673077" stop-color="#013C75" stop-opacity="0.8"/>
<stop offset="0.817308" stop-color="#00ACEE"/>
</linearGradient>
<linearGradient id="paint48_linear_1_1500" x1="383.635" y1="125.355" x2="387.593" y2="125.355" gradientUnits="userSpaceOnUse">
<stop offset="0.0673077" stop-color="#013C75" stop-opacity="0.8"/>
<stop offset="0.817308" stop-color="#00ACEE"/>
</linearGradient>
</defs>
</svg>
