<svg width="462" height="104" viewBox="0 0 462 104" fill="none" xmlns="http://www.w3.org/2000/svg">
<path d="M35.5287 51.7889C31.5051 50.3946 27.6649 49.0893 23.8581 47.6951C23.378 47.4021 23.0161 46.9499 22.8355 46.4175C21.335 43.0014 19.879 39.5686 18.3896 36.1414C18.2062 35.7137 17.995 35.2971 17.6949 34.6472C15.9332 38.7243 14.2604 42.5348 12.6654 46.3786C12.526 46.7842 12.288 47.1488 11.9727 47.4396C11.6575 47.7305 11.2748 47.9385 10.8592 48.045C7.70816 49.006 4.58488 50.0669 1.45048 51.0779C1.06146 51.2056 0.650221 51.2945 0 51.4611C1.13928 48.806 2.17852 46.3786 3.22887 43.9512C6.50221 36.3469 9.79777 28.7481 13.0433 21.1271C13.1436 20.7661 13.3722 20.454 13.6864 20.2495C14.0005 20.0449 14.3785 19.962 14.7494 20.0162C16.7334 20.0829 18.7286 19.9773 20.7126 20.0717C20.9921 20.1014 21.2617 20.1924 21.5019 20.3384C21.7421 20.4844 21.947 20.6816 22.1019 20.9161C26.5701 31.0144 31.005 41.1276 35.4065 51.2556C35.4561 51.4312 35.4969 51.6092 35.5287 51.7889Z" fill="#023E6F"/>
<path d="M35.5287 51.7888C33.5306 56.3632 31.6878 60.6109 29.8284 64.8475C27.314 70.6015 24.7552 76.3333 22.3019 82.115C22.1666 82.592 21.8594 83.0023 21.4393 83.267C21.0193 83.5317 20.516 83.6323 20.0262 83.5494C18.1446 83.4608 16.2463 83.5494 14.3647 83.4829C14.105 83.4518 13.8556 83.3624 13.6355 83.2214C13.4154 83.0804 13.2301 82.8915 13.0936 82.6688C8.74203 72.7004 4.4256 62.732 0.144318 52.7635C0.0837925 52.5824 0.0355734 52.3974 0 52.2097C0.482893 52.3316 0.882528 52.4036 1.26551 52.5365C4.46815 53.6441 7.65414 54.7849 10.879 55.8205C11.3119 55.9433 11.7083 56.1693 12.0342 56.479C12.36 56.7887 12.6055 57.1728 12.7495 57.5982C14.2814 61.3032 15.8744 64.9749 17.5618 68.9346C17.8782 68.2755 18.1168 67.827 18.3 67.3839C19.7598 64.0168 21.1641 60.622 22.696 57.2881C23.0442 56.5816 23.6351 56.0235 24.3611 55.7153C27.9468 54.353 31.549 53.1567 35.5287 51.7888Z" fill="#023E6F"/>
<path d="M25.7367 7.86833L17.8683 0L10 7.86833L17.8683 15.7367L25.7367 7.86833Z" fill="#023E6F"/>
<path d="M61.9031 76H50V28.4402H61.5916C61.6858 30.1508 61.7872 31.8471 61.9031 33.9042C62.3208 33.6062 62.72 33.2832 63.0985 32.937C68.4741 26.9965 75.103 25.7695 82.4564 28.1226C89.8098 30.4757 94.3233 35.7304 95.4462 43.3743C96.0403 47.3948 95.9243 51.538 95.9678 55.6451C96.0403 62.3795 95.9678 69.1212 95.9678 75.9928H84.1299V73.5531C84.1299 65.6565 84.1734 57.7599 84.1299 49.8561C84.0792 44.1467 81.1741 40.0396 76.465 38.7115C68.9522 36.5893 62.4392 41.3388 62.1132 49.5386C61.8162 57.1247 61.9755 64.6965 61.9321 72.3188C61.8959 73.517 61.9031 74.7152 61.9031 76Z" fill="#023E6F"/>
<path d="M123.519 42.8499H112.567C113.093 34.5911 118.014 29.0972 126.936 26.9692C134.354 25.203 141.538 25.7097 148.27 29.6618C152.76 32.2966 155.702 36.1763 155.834 41.2431C156.141 52.5637 155.929 63.8988 155.929 75.3281H145.123C144.955 73.2869 144.795 71.3398 144.605 69.0887C143.495 70.2757 142.633 71.3615 141.619 72.2735C135.42 77.7891 123.074 78.6142 116.138 74.0252C111.1 70.6883 108.953 64.7312 110.487 58.3109C111.706 53.1789 116.371 49.1762 122.526 48.5682C127.177 48.1122 131.879 48.2063 136.552 48.0688C137.092 48.0688 137.625 48.0688 138.165 48.0688C140.428 48.0326 142.743 48.0687 143.831 45.5281C144.678 43.5738 143.59 40.2369 141.64 38.478C138.194 35.3584 130.287 35.1195 126.848 38.2319C125.541 39.39 124.724 41.0983 123.519 42.8499ZM144.349 54.9161C139.005 55.1767 133.806 55.336 128.63 55.7196C125.169 55.9729 122.986 58.1661 122.789 61.1049C122.747 62.5673 123.23 63.997 124.153 65.1386C125.076 66.2802 126.378 67.0594 127.827 67.337C134.631 68.9512 144.488 65.4695 144.313 54.9161H144.349Z" fill="#023E6F"/>
<path d="M219 60.1736C214.974 72.5257 204.66 78.4842 191.618 76.6848C177.676 74.7527 169.501 64.4877 170.024 50.2109C170.488 37.6154 180.382 27.0037 192.51 26.1041C206.096 25.0864 216.309 31.5979 218.391 42.807C214.72 42.807 211.101 42.807 207.474 42.807C206.984 42.7155 206.548 42.4355 206.255 42.0253C205.075 40.4822 203.579 39.2182 201.871 38.3205C200.163 37.4227 198.283 36.9128 196.362 36.8258C194.442 36.7389 192.525 37.077 190.745 37.8169C188.965 38.5567 187.365 39.6806 186.054 41.1109C180.106 47.5045 182.028 60.4834 189.565 64.7679C192.268 66.2557 195.403 66.7202 198.411 66.0788C201.42 65.4374 204.107 63.7316 205.994 61.265C206.368 60.7316 206.934 60.3688 207.568 60.2548C211.333 60.1294 215.156 60.1736 219 60.1736Z" fill="#03ADF6"/>
<path d="M257.828 76.9998C243.509 77.0508 233.044 66.3109 233 51.5327C232.963 37.2929 243.89 26.0218 257.762 26C271.986 26 282.963 36.9582 283 51.2562C283.037 66.0198 272.323 76.9562 257.828 76.9998ZM244.476 51.5327C245.289 54.2758 245.7 57.23 246.997 59.7331C251.269 67.9845 261.477 68.9304 267.472 61.8359C272.264 56.1677 272.264 46.7085 267.472 41.0256C266.357 39.6231 264.94 38.4863 263.324 37.6989C261.709 36.9114 259.937 36.4933 258.137 36.4751C256.338 36.457 254.557 36.8393 252.926 37.594C251.295 38.3487 249.855 39.4567 248.712 40.8364C246.073 43.8852 244.82 47.3997 244.476 51.5327Z" fill="#03ADF6"/>
<path d="M308.49 76H297V28.4645H307.726C307.864 30.0995 307.995 31.7128 308.148 33.5062C316.101 24.28 328.472 25.3675 335.537 34.3848C338.113 31.0286 341.322 28.623 345.528 27.6795C350.287 26.6279 354.988 26.6063 359.354 28.9903C365.023 32.0585 367.089 37.3018 367.875 43.2438C367.988 44.3781 368.024 45.5186 367.984 46.6577C367.984 56.3448 367.984 66.0392 367.984 75.8848H356.08C356.08 71.1744 356.08 66.5649 356.08 61.9626C356.021 56.5105 356.13 51.0367 355.708 45.6133C355.228 39.5417 350.789 36.5744 344.793 37.7988C341.526 38.4686 338.885 41.8897 338.71 46.5064C338.426 54.1553 338.463 61.8114 338.375 69.4675C338.375 71.5706 338.375 73.6808 338.375 75.9064H326.733V69.0929C326.733 62.4236 326.82 55.747 326.733 49.0776C326.696 47.0376 326.348 45.0148 325.699 43.0781C325.174 41.4668 324.157 40.056 322.789 39.0392C321.421 38.0224 319.769 37.4495 318.059 37.399C316.349 37.3485 314.666 37.8229 313.239 38.7572C311.812 39.6914 310.713 41.0398 310.091 42.6172C309.171 45.5653 308.681 48.6284 308.635 51.7137C308.359 59.7371 308.49 67.7677 308.49 76Z" fill="#03ADF6"/>
<path d="M393.524 93H382V26.555H392.961C393.137 28.2473 393.312 29.9615 393.495 31.7632C393.736 31.6538 393.977 31.61 394.094 31.4714C402.476 21.7261 416.469 23.9582 423.952 31.7413C433.978 42.1797 433.211 62.0205 422.264 71.4449C418.516 74.7651 413.643 76.5373 408.634 76.4018C403.625 76.2664 398.855 74.2334 395.292 70.7155C394.848 70.199 394.456 69.6394 394.123 69.0451L393.539 69.4098L393.524 93ZM419.765 50.3713C419.203 48.0882 418.932 45.6883 418.033 43.551C415.936 38.5689 411.866 35.9065 406.568 35.6439C401.453 35.3886 397.558 37.9781 395.285 42.5517C393.949 45.1162 393.281 47.9749 393.343 50.8647C393.404 53.7545 394.192 56.5824 395.636 59.0882C396.424 60.5646 397.509 61.8627 398.822 62.9013C400.136 63.9399 401.651 64.6964 403.271 65.1237C404.891 65.551 406.582 65.6398 408.239 65.3844C409.895 65.1291 411.48 64.5352 412.896 63.6399C417.756 60.6273 419.21 55.8422 419.765 50.3713Z" fill="#03ADF6"/>
</svg>
